<mxfile host="app.diagrams.net" modified="2021-04-13T03:09:52.908Z" agent="5.0 (Windows NT 10.0; Win64; x64) AppleWebKit/537.36 (KHTML, like Gecko) Chrome/89.0.4389.114 Safari/537.36" etag="Fn-RaAb6oxMoXQpK5xLz" version="14.5.10" type="github">
  <diagram id="VoQYFksiuE6N1fxM7Q7Q" name="Page-1">
    <mxGraphModel dx="1038" dy="1648" grid="1" gridSize="10" guides="1" tooltips="1" connect="1" arrows="1" fold="1" page="1" pageScale="1" pageWidth="850" pageHeight="1100" math="0" shadow="0">
      <root>
        <mxCell id="0" />
        <mxCell id="1" parent="0" />
        <mxCell id="kZEs2HqjManc7GenbBka-1" value="&lt;font style=&quot;font-size: 14px&quot;&gt;Before we started the APIs need to integrated by Raven. Let&#39;s roll back the current flow of In-app Notification API which Raven team integrated in DAWN project.&amp;nbsp;&lt;/font&gt;" style="text;html=1;strokeColor=none;fillColor=none;align=left;verticalAlign=middle;whiteSpace=wrap;rounded=0;" vertex="1" parent="1">
          <mxGeometry x="40" y="50" width="760" height="20" as="geometry" />
        </mxCell>
        <mxCell id="kZEs2HqjManc7GenbBka-2" value="&lt;font style=&quot;font-size: 14px&quot;&gt;Let&#39;s have a look at the API in the depict below&lt;/font&gt;" style="text;html=1;strokeColor=none;fillColor=none;align=center;verticalAlign=middle;whiteSpace=wrap;rounded=0;" vertex="1" parent="1">
          <mxGeometry x="40" y="100" width="300" height="20" as="geometry" />
        </mxCell>
        <mxCell id="kZEs2HqjManc7GenbBka-4" value="Dep 1.1: Send In-App Notification by Msisdn in DAWN project" style="text;html=1;align=center;verticalAlign=middle;resizable=0;points=[];autosize=1;strokeColor=none;" vertex="1" parent="1">
          <mxGeometry x="260" y="540" width="340" height="20" as="geometry" />
        </mxCell>
        <mxCell id="kZEs2HqjManc7GenbBka-5" value="This is the request for the API above:" style="text;html=1;align=center;verticalAlign=middle;resizable=0;points=[];autosize=1;strokeColor=none;" vertex="1" parent="1">
          <mxGeometry x="40" y="580" width="210" height="20" as="geometry" />
        </mxCell>
        <mxCell id="kZEs2HqjManc7GenbBka-6" value="&lt;div&gt;{&lt;/div&gt;&lt;div&gt;&amp;nbsp; &amp;nbsp; &amp;nbsp;&quot;serviceNumber&quot;: &quot;09xxxxxxxxx&quot;,&lt;/div&gt;&lt;div&gt;&amp;nbsp; &amp;nbsp; &amp;nbsp;&quot;subject&quot;: &quot;Subject message&quot;,&lt;/div&gt;&lt;div&gt;&amp;nbsp; &amp;nbsp; &amp;nbsp;&quot;messsage&quot; : &quot;Notification Content&quot;&lt;/div&gt;&lt;div&gt;}&lt;/div&gt;" style="text;html=1;align=left;verticalAlign=middle;resizable=0;points=[];autosize=1;strokeColor=none;" vertex="1" parent="1">
          <mxGeometry x="110" y="600" width="220" height="70" as="geometry" />
        </mxCell>
        <mxCell id="kZEs2HqjManc7GenbBka-7" value="&lt;div style=&quot;text-align: left&quot;&gt;&lt;span&gt;We have a questions here: With the only MSISDN why we can do this incredible thing. This is bring the Notification Message appear on the user&#39;s devices.&lt;/span&gt;&lt;/div&gt;&lt;div style=&quot;text-align: left&quot;&gt;&lt;span&gt;And the answer is the endpoint ARN help us do that.&lt;/span&gt;&lt;/div&gt;" style="text;html=1;strokeColor=none;fillColor=none;align=center;verticalAlign=middle;whiteSpace=wrap;rounded=0;" vertex="1" parent="1">
          <mxGeometry x="40" y="700" width="760" height="20" as="geometry" />
        </mxCell>
        <mxCell id="kZEs2HqjManc7GenbBka-12" value="" style="ellipse;whiteSpace=wrap;html=1;strokeColor=#FF0000;fillColor=none;strokeWidth=2;" vertex="1" parent="1">
          <mxGeometry x="460" y="280" width="100" height="40" as="geometry" />
        </mxCell>
        <mxCell id="kZEs2HqjManc7GenbBka-13" value="If you don&#39;t know about SNS, we will wonder what is endpointArn? Where does it come from? How can we get it? &lt;br&gt;Currently these questions are solved by project team (DAWN). Let me explain a little bit for each question." style="text;html=1;align=left;verticalAlign=middle;resizable=0;points=[];autosize=1;strokeColor=none;" vertex="1" parent="1">
          <mxGeometry x="40" y="735" width="620" height="30" as="geometry" />
        </mxCell>
        <mxCell id="kZEs2HqjManc7GenbBka-3" value="" style="shape=image;imageAspect=0;aspect=fixed;verticalLabelPosition=bottom;verticalAlign=top;image=data:image/png,iVBORw0KGgoAAAANSUhEUgAAAvMAAAFfCAIAAABMUdSIAAAABmJLR0QA/wD/AP+gvaeTAAAgAElEQVR4nOzdeVxN6f8A8Od0b92tfd+kkiXJlsgSpZCRjCVD1GTGrqEZzWgYYzdmSphpkH0yxQihjAghlGUQihYqrbShdFtu9/z+eH7O63zv1q0u1fV5/+F17nOe85zPWe+n5zznIkiSRAAAAAAASkGlvQMAAAAAAFAYyGwAAAAAoDwgswEAAACA8oDMBgAAAADKAzIbAAAAACgPyGwAAAAAoDwgswEAAACA8oDMBgAAAADKAzIbAAAAACgPyGwAAAAAoDwgswEAAACA8oDMBgAAAADKAzIbAAAAACgPyGyAggmFwn379rm6uhoYGKiqqurp6Y0cOXL37t1NTU0fYe2DBg0iCEJdXV1aBX9/f4IgCIK4ePGiolY6d+5c3GafPn0U1aY8fvrpJ7zexYsXi8zq1asXQRC9evVqaZtnzpxJTU2lPgYGBuJVPHjwgCq8devWyJEjeTwej8fr169fXl6exGoKIU88H4K9vT1e0fPnz6nCmJgY4r3o6GiqPDMzExe6ubnJCFJkWwICAnC1x48fyx8YtRRBEFZWVvRZKSkpBM2VK1eoWfJclRIvDXkWDAoKIv4Xl8u1sLCYPn36rVu36BF+iDMWAHGQ2QBFEggEkyZNmjdv3pUrV8rLywUCQWVlZXJy8qJFi8aPH9/Q0NDeASoen8+PiYnB0+np6bdv3/74MezZsyctLa2Njbx48cLT03PSpEmlpaUyqtXV1Y0fPz45Obm2tra2tvbx48eGhoZtXHVb4vlAhg0bhifoB5SeKyQnJ1PTVJ3hw4dLbO0DbUteXl5eXp7E8OhafVW2ekE+n19QUBATEzN8+PC9e/eKV1DIGQuANMz2DgAolUOHDsXHxyOEtLW1p02bZmxs/Pz58xMnTtTX1ycmJm7fvv2HH35o7xgVLDY29u3bt9THgwcPDh48+CPH0NTUtHTp0qtXr7alkZMnT549e1akcPDgwV9++SVCSFdXF5c8ffq0qqoKITR8+PDQ0FA+n8/lcsWrtZ2c8Xwgw4cP37NnD0Lozp07M2bMwIVJSUlUhWvXrlHTIpmNeJASt0UhkpKS5syZg6elZTatvipbuuDkyZN79+4tEAjevHlz7dq1jIyMpqamxYsX9+3bd8iQIfSaCjljAZCKBEBxJk2ahM+r7OxsqvDYsWO4sH///h86AAcHB4QQj8eTVgF/5SCEEhMTFbLGsWPHIoSYTKaBgQFCSEtLq7a2ViEtN2vVqlX0a/nIkSPUrJ49eyKEevbsKX9r27Ztw+3ExsbKqHb9+nVc7eeff2596IqL5wPJzs7Gax8xYgQuobpbGAwGQoggiPLycjwL57IqKipv3ryR2JrEbVmyZAkufPTokfyBUUvp6ekhhHx9fXF5Y2Mjfgirr6+PKyQlJeFZcl6V4peGnAsuX75c/AzEOQ0uHzduHC5U7BkLgDTwNAooUn19PZ7Izc2lCqdMmbJp06YNGzb4+vpShS9fvly0aJGZmRmLxbK0tPzmm29evnxJzcWDCdhsdlVV1bJly7p06cJms+3t7SMjI+mrKyoq+vLLLw0MDLhcrru7e+vGXsi5LomKiorwoAR3d/fZs2cjhN68eRMbG0uvM3v2bIIg9PX1CwsL/fz89PX1eTze6NGj6Y855KnTrO+//762tlZGhRMnTri7u+vr63M4HHt7+40bN7579w7P8vT0/Pbbb/H05MmTqTEiIkNGRowYMWLECFxt/fr1BEEEBQWJV8Pq6uo2b97cp08fDodjYGDg7OxMPbbDkpOTPT09zc3N1dTU8ACOI0eOtCgeeTYNteoQ29jY4Kds9+7dw2NKqA4bHx8fhBBJkviBVGNjI36wYm9vr6mpKR6ktG2hNDY2bty40dLSks1mDxgwQGQvSYMPBBXVnTt3ampqEELOzs4iNeW/KhW1IEJIRUUlJCRES0sLIXThwoXKykrxOs2esQC0UnunVkCpbN26FZ9XKioq48aNCw8Pz8jIEK9WVFTUtWtXkVOxS5cuhYWFuAL+w5TJZOIRhWpqalS1s2fP4jolJSXm5ub0Fng8Hv6DtUV9NvKsS5pffvkF14yMjLx79y6ednNzo9eZNWsWQojL5YpEy2azr169Kn8dcdRfwPb29njip59+wrPE/wKeN2+e+OVvb29fVlZGkuSECRNEZt2/f58kyWXLltE/io8jWb58uXg1kiT5fD41VIVu8+bNuMKVK1fou5ry119/yR+PPJvW6kP8+eef4zppaWkkSc6fPx83kpWVhcu/++47kiTv3LmDPy5ZsgQvKBKktG2hel/69+8vUkFGhyK1FHWt4Q6VzZs3I4RYLBZ1TlJ9NnJeleKXhpwLSuyzwcaPH49nnTt3jmzhGQtAq0GfDVCkxYsX4wfqQqHw/PnzAQEBvXv37tq1648//vjq1SuqWkBAQH5+PkEQa9euvX79emhoKJPJLCgoCAwMpLcmEAj4fH5aWlp9fT11v965cyeeWLVqVWFhIUJo8ODB586dO378uKGhYXl5eesil70uafAf/RwO5/PPP3dwcMB358uXL+fn54vUrK2tbWhouHDhwuvXr3ft2sVgMOrq6ubOnSsUCltUR6Jff/2Vy+UihEJDQ+l/XlP27duHB3Lq6elt3rx5165djo6OCKFHjx599dVXCKFNmzYtWrQIV163bl1iYqKNjY14O7t27aL2yZw5c5KTkwMCAiSGtHnz5ps3byKERo4cGRsbGxUVhZO21atXv3jxAiG0atWqhoYGTU3NqKio1NRU6ksU71I545Fn0ygtPcQig4hx78igQYO6d++ODzTus2l2+HCz25KVlfXnn3+mpKT4+/vjkl27dkmLikL1zeDA8CAbR0dHNpstUlPOq1JcqxekdOnSBU8UFxfTy5s9YwFok/ZOrYCyeffuXXBwsI6OjsiZZmBgcOfOHZIkX716paKighCaPn06tRS+9TOZTDxSgfrD9ODBg7hCU1MTh8NBCPXq1YskSaFQiDu6eTwe9af5o0eP8FKt6LORsS5pqDdavb29ccn69etxydq1a6lquD8GIRQREUEVUoNSb968KWcdcdRfwI8ePdqwYQOe/vzzz0mxv4B79OiBEGIwGA8fPsQl9fX11Bu2jx8/JqWMBRHvI6HeCVqzZo2MaiYmJgghLS0taujJ6dOnx4wZExQUlJ6eTpLkkydPoqOj4+LiqEZwN56trS3+KGc88mxa6w7xjRs38FLz588vKirC0z/++CNJkgsXLsSna3V1NXVGvXjxQlqQssfZbNy4EZc0NjbiqHr37i0tKmqpgoKCbt26IYRmzpxJDbL58ccfqXVRfTakHFclKWUImjwLyuizof5W2b59O9mSMxaAtoA+G6BgXC73l19+KS0tTUxMXLFixaBBg3AeU1ZWNmPGDKFQeO/ePdwJcfv2bff3Ll26hBASCARUdoLZ2dnhCRUVFfymSV1dHUKosLDwzZs3CKFhw4ZRQyb79Okj/pBLftLWJc1ff/2FJ/DAC4QQlaAcOnSIJEmR+iNHjqSmR40ahSdEtleeOhJ9//331tbWCKFTp06J/FRPcXExfoDi7OxMPQVQU1ObO3cunqa/wKwQJSUlJSUlCCEHBwc89AQh5OXldeHChZCQkN69eyOEevXqNXPmzIEDBx47diwoKGjQoEG4o0sgEMi/opZuWosOsYODA4vFQgjdvn2bGs7i6upK/SsQCFJSUnCfTZcuXaj+iZaiel+YTCaOis/ny7/glStXqEE29POHrtmrUtoqWr0gRm0I7qGhk3HGAtBGkNkARaqoqHj06FF2draampq7u/uWLVvu3Lnz+PFjnHA8e/YsNTUVvzOMEMrLy7v0HjV2oaKigt4g/Tf3mEwmQghnDNT4UPxGEoXKclpB2rokamhoOHr0KJ7Gw0IJgsB/QyOE8vLy6G8IYzweTzzO6urqltaRiMViUX+sL1u2jJ4fULvUzMyMvgj1UeLozrbASSeS+W52enq6s7OzmZnZF198sXXr1ocPH6qqqiKE8BennFq6aS06xCwWa+DAgQihx48f43e2VVVV8SMnFxcXXOfs2bOZmZno/Xje1tHW1haJqtmMAcN5TElJSUREBEKIwWBIfCImz1Upsf1WL0ih+rqMjY1FZsk4YwFoI8hsgMLcv39fX1+/b9++fn5+9HJbW1tPT088XVJSoqGhgadxx74ILy8v+rIEQUhcF34UhRB6/fo1vbysrKzV8Utbl0RnzpyRnRAcOHBApKSgoICapuKkf6vJWUcaLy8vDw8PhFBGRsazZ8+ocuqX9KivGQyPUkJi2WHbUUeHPuyJz+ffu3cP/xHf0NAwfvz469evq6mpLVu2LCEhobKyEv+ibosym5ZuWosOMXo/dEYgEBw/fhwhNGTIENz3YGhoiLt/Dhw4gLMQaYNs5NGiTaajOnv+/vtvhFC/fv2oi4si51Up3nirF6QIBAL8xJYgCJHfs8GknbEAtBFkNkBh7O3tcTdDamoq9fouQqi8vBz/3hdCyMLCol+/fng6MTGRqrNu3bply5bt3btX9gMgiomJiZGREV4X9VuoOTk51Ffah0Y9ilq8ePGa/4UfYZw8eZLqusDo7xifPn0aT1B7Q/46MuzYsUP8hSMjIyPc7Z+cnJyeno4LGxsbqdwLP/aivl/l7DCQwcTEBP+NfuvWLSo/O336tIODg7q6+s6dO+/evYtzuKVLl27fvn3cuHHq6uq4M49KPuSJR85NazVqEHFjYyN6/xAKw9NUd5rsPhsF7ls6GxsbPJ4Jv5cu8VGUnFelAhekbN26FR/9cePGSfuhaolnLABtBL9BDBSGyWQGBASsXbsWIeTj47N//347O7uqqqr4+Hj8pdW7d2/8/zq5u7tfvHjx7t27CxcunD9//v379zds2NDU1OTg4CDxDV6JfH19Q0NDKysrFyxYEBoaWlVV9eWXXyr2m0OaV69eJSQkIIRMTEz++OMPkb+5Hz16dPLkST6ff/To0QULFlDlERERampqLi4usbGx58+fR+93CH1ZeerI0KNHj8DAwN9++02kfMmSJcuXL29qanJxcVm+fLmOjs7BgwefPHmCEJo2bRoehEs9CDt48GB+fv6kSZNw0tA6X3/99aZNm/h8vrOz89KlSxsaGvBryQihzz77DA8KQQg9ffpUKBSqqKjs2LEDfwtSeaqc8cizaa0m0hMjktmEh4fjaU1NTWqUj0SK3bd0zs7O1E/nScxs5LwqFbLg8ePHnz59SpJkbW3ttWvX8AgkJpOJG5FI2hkLQJt81PHKQNnV19eL/3oHpq2tjX8XhCTJrKws8Scgmpqa//33H65AvQDy5MkTqnH8dL9r167449u3b/FYVAqDwaC+pKVFKOPdKBnrEhEWFoYXWbp0qfjckydP4rmDBw8mae89UcNXMQ6HQ730JE8dcfQ3TajC6upqU1NTXE69aSIUCmfOnCl+UAYOHFhZWYnr/Pfff/RZp0+fJtvwblRtba3EBxBhYWEkSTY1NVFzLS0t8XMoPM5GXV1dIBDIH488m9aKQ0yhxk6xWCw+n0+Vl5eXU91L1G/sStsbErdF4m8QNxsV/d0okiT/+OMPqtlXr16RtPewqHej5LwqxS8NORek3o0Sx2Aw6K/7yX/GAtAW8DQKKJKamlpcXNxff/3l7u6up6fHZDK1tbX79u0bFBT09OnTvn374mrdu3e/f//+ggULunTpoqamZmZmNnPmzFu3buEBm3LS0NC4du3a/Pnz9fX1uVzu6NGjk5KS6H9VfzjUo6jp06eLz/3ss8/wW7K3b9+mHpEghE6ePLl06VIcrbu7e3Jy8tChQ0WWlaeObOrq6uJ/AeP/m/rYsWPu7u66urpsNrtPnz6bNm26fv069ULvwIEDN23aZG1tzWKxevbsSb3T1DocDufy5cvr16+3tbVlsViGhoaurq7x8fH413hVVFROnz795ZdfmpiYlJeXa2pq/vbbbzjsmpoa/KaMnPHIs2ltQXXbODk50X8qRk9Pjzqfmx1ko9h9S0cNtbG1tZU2XkrOq1KBC7JYrK5du86ePfvWrVv4Fw5lkHjGAtAWBCn91QAAQNvNnj07KioKIVRQUCDyE8MtqgMAAEAe0GcDAAAAAOUBmQ0AAAAAlAdkNgAAAABQHjDOBgAAAADKA/psAAAAAKA8ILMBAAAAgPKAzAYAAAAAygMyGwAAAAAoD8hsAAAAAKA8ILMBAAAAgPKAzAYAAAAAygMyGwAAAAAoD8hsAAAAAKA8ILMBAAAAgPKAzAYAAAAAygMyGwAAAAAoD8hsAAAAAKA8ILMBAAAAgPKAzAYAAAAAygMyGwAAAAAoD8hsAAAAAKA8ILMBAAAAgPKAzAYAAAAAyoPZotoEQXygODoLkiTbOwTQicEVpHBwSX58cBp3EDJOfqU8RvJf7C3LbFrUtPJRynMFfGSf8hWkcHBJthc4jdtdsye/kh2jFl3s8DQKAAAAAMoDMhsAAAAAKA/IbAAAAACgPCCzAQAAAIDygMwGAAAAAMoDMhsAAAAAKA/IbAAAAACgPCCzAQAAAIDygMwGAAAAAMoDMhsAAAAAKA/IbAAAAACgPCCzAQAAAIDygMwGAAAAAMoDMhsAAAAAKA/IbAAAAACgPD54ZhMeHk6I4XK5FhYWM2fOzMjI+NABAKA0xo8fTxDEhAkTRMr9/f0Jgjh79qxIuaOjI0EQI0eOFCmPjIwkCGLlypVUyb///vv5558bGxurqakZGxtPmDAhJiam7YEhhEJDQ0Uuf1VVVT09PRcXl+joaKpaTk4OQRAjRoyQf6WgExE5DVRUVHg8no2Nzdy5c5XgW0D+rQsODha5HDQ1Nfv27btx48b6+vr2ip+u2VvBli1bCIIYNmyYUCgUWVYgEBAEMWjQoBY1+EGQLdHS+iRJ/vHHHwih/v37z6L57LPPTExMEEIaGhqZmZktbbO9tGLzAaBryylUUlLCYDC4XC6DwSgoKKDPOnToEEJo1apV9MKKigoVFRUVFRVVVdXq6mr6rHnz5iGELl68iD/+8MMPCCGCIHr06DFixIgePXqoqKgghGbNmiUUCtsSGEmSISEhCKFu3bqNem/EiBG2trb4/rNu3TpcLTs7GyE0fPjwFu0TuCTbRSt2u8hp4OzsPGDAAB6PhxBis9mnT5/+EHF+NPJv3YoVKxBCvXr1oq4Fe3t7FouFEBo3bpw8lxtF9lFo3aUhz63gl19+wRfvH3/8IbJ4Y2MjQsjBwaFFDcqpRVv0kTKbX375RaScz+f7+PgghGbOnNnSNtsL3EZBG7XlFAoNDUUIrV27FiG0fv16+qz8/HyEkJubG73w2LFjCCFvb2+EUFxcHH2Wra0tm83m8/kkSf7333/4pvz48WOqQnp6eq9evRBChw8fbktg5Pub/rZt20TKL1y4oKampqqqWlxcTEJm06m0OrMROQ0aGxt/+eUX3IuflZWluAA/Nvm3Dmc2IpdVWVnZgAEDxK9T2RSe2ch5K6AyGw0NDZG/ZEQym7bfW1q9Re02zobNZm/btg0hlJiY2F4xANCJREZG6ujo/PDDD1paWgcOHMCXOmZhYWFtbX379m16/3BiYiKTyVy9ejX636ussrLy6dOnw4YNY7PZCKGEhASE0Nq1a+3s7Kg6vXv33rNnD0IoKiqqLYHJMGbMmClTpjQ2NsId4JPFZDKDg4NXrFhRW1u7cePG9g5HweTfOn19/W+//RYhdOPGjY8VnQQtuhUMGDCgurp68eLFimpQsdpzBLGBgYGamlpNTQ1VkpaW5uPjY25urqampqWlNXLkyNOnT+NZ33zzDUEQFy5coLeQmppKEMSSJUvwxzdv3nz//ffW1tYsFsvc3HzJkiVlZWVUZfyo79mzZ9OnT9fT0+NyucOGDcO7HoAO7uHDhw8fPnR3d+dwOJ9//nleXt7FixfpFVxcXKqrq9PT06mSxMTEIUOG2NvbW1tb07OHGzdukCTp5uZGX7yqqkpkjcOGDfv111+//vrrNgYmg7W1NUKooqJCzvpAKa1atYrL5Z44cUIgEGzYsIEgiH379tEr5Ofnq6iozJ49G8l3G5fxPYJbMDc3f/r06eTJk7W0tDQ0NMaNG5eVlVVRUTFv3jxDQ0MtLa2xY8c+efKE3uarV68CAgIsLCzU1NTMzc0XLFhQXFzc0q2TUY3JZCKEtLS05Gnzg5LzVvDtt9/a29vHxcXhvuG2N6hgH647CJP2NIokyatXryKE+vfvjz+mpqZyOBwNDQ1fX9+goKApU6YwmUyczeC5CKGvvvqK3sKyZcvQ+zt1VVVV7969EULOzs7ff/+9t7c3g8GwsrIqLS3FlSdNmsTj8QwNDcePH793797ffvtNT0+PwWDcv3//w20+AHStPoW+++47hNDx48dJkjx37hxCaPr06fQKhw8fRghFRETgj/jhzpo1a0iSnD9/PkKosLAQz8JPvlNTU/HHhw8fqqioqKur//bbb0VFRQoPTNrTKJIkvby8EEL//PMPCU+jOpVW7HYZpwFJkq6urgihO3fu5ObmEgTh6upKn7tp0yaEUEJCAinHbVz29whuQV1dXUdHZ8aMGYcOHQoICEAIde/e3c7ObsyYMXv37l29erWqqqqNjU1DQwNeJD8/38zMDCE0cuTIpUuXjh49GiFkYmLy7NmzFm0dKeVpVHl5+aBBg7hcbm5urvy7VPZRaMUxkvNWgJ9GHTly5NatWyoqKkZGRpWVlXiWyNOoNt5bRLRoi9ohsxEKhZWVladOnerSpQtC6NChQ7h8zJgxBEHcvXuXqomTwTlz5uCP3bt319HRqa+vxx+bmppMTU2trKzwR3z7pj/mx3k6NY5n0qRJ9NZIkoyPj0cILV68WM5tgdsoaKPWnUICgcDY2FhDQwOPjBEIBIaGhmpqamVlZVSdwsJC+um9c+dOhFBycjJJkv/88w9C6ODBg3jWsGHDNDU1BQIBteyePXvwGEaEkJ2d3eLFi0+ePFlTU6OQwKTd9P/++2+CINTV1auqqkjIbDoVhWc2/v7+CKEzZ86QJDly5EgVFRX6F2Hv3r2NjY3xGdvsbbzZ7xHxFnD/paurKzWmdenSpdTfzCRJenp6ov8dMLtr1y6E0OjRo1u6dSIjiEeOHDlw4EA2m62np/fvv/82vx9pFJ7ZkPLdCqjMhnzfuUD1OIiPIG71vaWNW/SRMhuJVFRUli9fTp1Mp06d2r9/P33Z8vJyhNCECRPwRzxEMT4+Hn+8cuUKev8+SH19PZfL7dq1a1NTE72FoUOHMplM/GIIPqGpk5UkSdxLNnbs2A+3+QDQte4Uwn0hfn5+VAl+AhsWFkav1r179169euHpyZMnq6ur4z86y8rKCIKYNWsWSZJ1dXUsFsvLy0tkFTk5OStWrKBeWUIIaWho/PLLLyIXVCsCE383avjw4aampggh/NwBV4PMphNReGazYMEChNDff/9NkuT+/fvpp9C9e/cQQt999x3+2OxtvNnvEdzC1atXqQq43/Gvv/6iSiIiIhBC0dHReHGCIBwdHUViHjJkCEII97LIv3U4sxGnpqa2YMGCuro6GftQxIfIbEg5bgX0zKa6utrCwgIhdPnyZVJSZiNPg3Jq0RZ9pHE2vXr1mjBhwoQJE4YPH45f+pozZ052djb+GQBcZ9KkSV999VVlZeXVq1cPHDgQFBSEfx6jqakJV8DPWfEfoAiho0ePUoVPnjypra1lsVjr169fS1NXVycQCOiDD6ysrKhpdXV1hFBDQ8OH3wEAtF5kZCRCaObMmVTJrFmzEEIiwxFcXV0zMzOrqqqampqSkpJGjRqlqqqKENLX1+/Xrx/+S+DOnTv19fUig2wQQt26dduyZUtGRkZxcXFUVNSsWbPq6+t//PFHfNNvY2AIoWfPnl197/bt2yRJTpo06cKFCx/2WTvoJKqrq9H7G7K3tzeHw6F+6wiPM/X19aXXl3Ebb/Z7BLO0tKSmORwOQgg/Q8DU1NQQQvgHZh4+fEiS5KhRo0RidnZ2RgilpaW1aOsw+tOo6urq1NRUV1fXiIgI/HMM7atFtwJ1dXXcfTV//vy6urq2N6gwHy5pwsSfRqWnp3fp0oXJZEZGRtJr5ufnT5s2Dec9CCFzc3N8xxw3bhxVx8nJSVNTk8/nNzY2GhgYDBw4EJfju7Y0586dI9+n6vR+cpxgjho16sNtPgB0rTiF3r59i++8Et28eZOqib8Mzp07l5KSgv634yQoKAghlJOTs2XLFoQQ/SVMkiTfvXsnvt4nT57gEQz4rexWByb7z1kK9Nl0Iq3Y7bJPA0dHR4TQgwcP8Ed858/KysJDDvr06UPVbPY23uz3iHgLq1atQu8f3WIHDx5E7x/gnjp1Ckn6OYOwsDCEUFRUVIu2TuI4G5Ik+Xy+oaGhyGM42WQfhdZdGvLcCuh9Nhjew8HBweJ9Nq27t0jUoi1qh3ejevfuffr0aQaDMWfOnGvXruHCpqYmDw+P48ePL1iwICkpqby8vKCgAL8WTjd79uy3b9+eP3/+8uXLZWVl+A9E9D4dxv3t4jw8PD7mBgKgQDExMXw+39HRccH/cnFxQf/bO4IHKt69e/fy5csIIXd3d2oW7qS5efPmjRs3jIyMqJcw6+vrORzO8OHDxdfbq1evL774oqmp6enTp20MDAAZKioq0tLSNDQ0qNPyyy+/RAjFxMRcv369uLjYz89Pzqbk/B5pEQ0NDYSQ+JtQ+CmYnp6e7MXFt04iNps9YMAAoVCYk5PTlmhbrS23gu3bt+vq6oaGhtJ7sNrSYNsxP1C7sg0YMGDdunXBwcGzZs3KyMjQ0NC4e/fukydPxo0bh0c+YllZWQghkvbzGDNmzPj222/PnDmDf1x1xowZuNzW1lZVVfXGjRsCgQC/Poft2LGjpqYmICCgI7xNB0Ar4Cc+YWFhIv/zwIsXL6ysrP7555/t27fjm6+xsXGvXr3++5XZphQAACAASURBVO+/+vp6IyMje3t7qvLIkSPV1NTS0tJSU1PHjBlDlbNYrG7duqWlpd27d2/gwIEiq37x4gVCyNDQsI2BASBDaGhoQ0ODr68vdet2d3c3NTWNi4t7/fq1iooK/k1Xecj5PdIiffv2JQgC90FSYycQQvjPcvrwEYnEt06agoICJEeq9IG05VZgaGi4devWOXPm0J+mtaXBtmu337MJCgpydHQsLCwMDg5GCOHh0+/evaMq1NTU/Pjjjwgh3MGF6enpjRs37t9//42Lixs9ejQeh4gQ4nK53t7eeXl5a9asoSpfu3Zt+fLlkZGRmpqaH2ejAFCs/Pz8a9euWVpaiv/pY2FhMXr06Hfv3uEBZ5irq+udO3dSUlJERtJwuVwnJ6f4+PiysjKRWcuXLydJcuLEibGxsdRPbtTV1W3atOns2bMDBw6U+LdmSwMDQFxDQ8P27dtDQkLU1dXxT0piDAbDx8fn9u3bR48eHT16NH7jWh5yfo+0iL6+/mefffbw4cPw8HCq8NChQ1evXh05ciQePyuRtK0TJxAI1q9fn5GRgV8+b12cbde6WwHm7+/v7u5+//59RTXYRu3TZ4MQYjAY+/fvd3Bw2LVrl4+Pj5OT04ABA65fv+7h4eHi4lJeXn7s2LHKykoulyvyQ16zZ8/Gr/nhEQOUsLCwlJSUzZs3X7p0afjw4S9fvoyJiVFTU9u/fz890QagE8HP4318fCSew3PmzLl48eK+ffuoP5VcXV3xgD76oyjM3d39559/Ru+fTNEbSUtL27Fjx5QpU7S1ta2trYVCYWZmJp/PNzExOXLkiEICAwAhFB4ejoetkCRZXV2dmZlZW1vLZrOPHDnStWtXes0vv/wyNDS0oKCgRb9NbG9vL+f3SEvDvn///tKlS0+dOtW/f//09PTz588bGxuLPHKVf+s2bdpELSsQCDIzM8vLy1VVVeldTR9f624FlN27d9vb2/P5fEU12CbyD8lp6RAeTMYv9ZEk+dNPPyGEbG1t6+vri4qK/Pz8TE1NORxO9+7dfX19s7KyvLy8CIKg/+cUfD5fU1OTzWa/efNGpLWysrLAwEBLS0s1NTUzM7Np06bhYe0YjCAG7a6lp1DPnj0RQhkZGRLn8vl8bW1t9P71DZIkX716hVONFy9eiFTGP9xubW0tsalLly75+PhYWlpyOBwej2dvb7969Wr8SzNtDAxGECufVux2fBrQcTicXr16LVq0SNr/GGVra8vlckX+M9dmb+PNfo+0dAQxVlxcvHDhQjMzMzU1ta5duwYEBJSUlLRi68Tf+lZTU7OwsPDx8bl3716Ldqnso9DqS6PZW4H4CGLKr7/+isTe+m7pvUWaFm0RQbbk6SNBtKy+kvnENx+0HZxCigX7s118hN3+5s0bY2PjadOm4R/XBuJkHwXluzRatEXt+f9GAQAAAOJ+/fXXuro6eJoJWqfdxtkAAAAAIkaOHFlUVPT8+fPRo0ePHDmyvcMBnRL02QAAAOgodHV1S0pKxowZQ/0MMQAtBeNsWuAT33zQdnAKKRbsz3YBu70jgHE2MkCfDQAAAACUB2Q2AAAAAFAekNkAAAAAQHlAZgMAAAAA5QGZDQAAAACUB2Q2AAAAAFAekNkAAAAAQHlAZgMAAAAA5QGZDQAAAACUB2Q2AAAAAFAekNkAAAAAQHlAZgMAAAAA5cFs6QIEQXyIOAD4RMAVBJQAnMYd36d8jDrZfweqfP9/KQAdEFxoQLnBGa4oHXNPwtMoAAAAACgPyGwAAAAAoDwgswEAAACA8oDMBgAAAADKAzIbAAAAACgPyGwAAAAAoDwgswEAAACA8oDMBgAAAADKAzIbAAAAACgPyGwAAAAAoDwgswEAAACA8oDMBgAAAADKAzIbAAAAACgPyGwAAAAAoDwgswEAAACA8oDM5qOqrq5+9epVx2+zo60RAAAAkJOSZzbFxcWzZ882NDRksVg9evRYv369QCBoS4MeHh6hoaGtXtzJyenhw4cIocLCQoIgXr9+jRAKDw/X1tbW0NB48OABVdjGNhWO3ji1xry8PIIgampqPsQaOwvxU0IgEBAEoaqqWlZWRi93dHQkCKK0tBTJPDNdXFzWrl2Lp2VUY7PZBEEQBMFgMHR0dDw9PTMyMqh1MZnM6dOn09c+bdq04OBgBW88AAB0PEqe2UyePLmqqiouLi4jIyMkJGTv3r0rV65sx3gqKirwhJ6eXkxMDI/HQwhFREQEBQXl5OT07NmTKmxjmwpHb5xaI5BBS0vr2LFj1MenT59mZmZSH+U8M2VXO3ToUEFBwfPnz8+fP89ms52dnfPz86m5MTExhw4d+iDbBgAAHRnZqbQoYKFQyGAwkpKSqJIzZ84sXrwYTz969MjNzU1bW7t79+579+4lSTI3N1dLS2vLli2DBg0yNTX18/NraGggSfLcuXN2dnZcLtfb23v48OEhISH0tUhb6saNGyNGjNDU1LSxsdmxY4dQKJw8ebKKioq+vv6+ffsKCgoQQlVVVU5OTkwmU1dXd/78+VQhSZKpqalDhw5VV1e3srI6ePAgXldMTMygQYN0dHS0tLR8fHz4fL7ENiWuXVqcFHt7+/379+P9ZmhouHz5clw+dOjQw4cPU43T15ibm4sQ2rp1q6WlJY/HE28zNzdXV1d37dq1dnZ2hoaG69at2759u729vYGBwc8//yztQAiFwh9++MHExERfX9/FxeX+/fvSCiXuE5Ikz58/36dPHy0tLU9PzxkzZqxatUriikSIN9W6U6KxsREhtHjx4qFDh1KFK1eu9Pf3RwiVlJTIPjNHjRq1Zs2aZk9gFosVFxdHzRIIBP369aPmMhiMhQsXamho5OTk4JKpU6euWLFCfKsl6nR3BgBaBM5wRemYe7IjxiRDS3fivHnzunfvvnXr1jt37tC/dN+8eWNsbLxhw4aGhoa0tDQzM7P4+Hj8PR0UFCQUCsvKykxNTaOjowsKCjgcTlRUVGNjY2RkJEJIPLMRXyo/P5/L5YaHhzc0NNy7d8/U1BR/lRoZGSUmJpIkSc9CcFcNvbCiokJHR2fbtm0NDQ0pKSlcLve///7Lzc1VU1O7dOkSXqmJiclff/0lsU2Ja5cYJ31DVq1aNWPGDJIkHzx4wOFwBg4cSJJkRUUFi8WqrKykB0ytEbc5ZcqUioqKjIwMPT29yMhI8Z2Dk6Tk5GSE0Pz584VC4dOnT1VUVPLy8iQeiISEBCsrq/LycoFA8N13340ZM4YkSYmFEvdJQUEBl8s9ePBgY2Pj0aNHCYJYtWqVxBWJhCreVOtOCZzZXLp0icvlPn/+nCRJoVBoaWl56dIlnNnIODNJWmYju5pIZkOS5Lp163r37o2nGQxGSkqKt7e3k5NTY2MjKSmzoedMIjrm3QoARYEzXFE65p5U8qdRe/bsCQ0NTUtL8/b21tbW9vb2zs7ORgjFxcWpqan99NNPqqqqffv2XbRo0Z49e/AiS5YsIQhCX19/8ODB2dnZsbGxdnZ2Pj4+TCbT19d3yJAhElckstTx48dtbW2XLFmiqqo6YMCAoKCgAwcOyB/2v//+q6enFxgYqKqq6uTkdOPGDWtra1NT0/T09NGjR799+7a8vNzQ0LCkpETi4jLWLhInfSkvL6+LFy+SJHnx4kV/f//09PSqqqqEhIRhw4bp6OjIiDYsLExXV9fW1tbZ2fnZs2fiFZYtW4YQGjx4MEJo7ty5BEH07NlTS0srPz9f4oHQ1tZ++fLlvn37MjMzQ0JCLly4gBCSWChxnxw/frxPnz7+/v5MJvOLL74YPXo0knnEMRm7t3WnhKam5sSJE6OjoxFCV69eNTc3t7a2puZKOzNFyFkNMzAwqKyspJdEREQUFhauX79eYv3PPvvsypUr0loDAIBOSskzm3fv3nl5eeE/vjMzM3V1dV1cXOrq6vLz84uLi7Xf27JlS2FhIV5EX18fTzAYDKFQWFJSYm5uTjVoZWUlcUUiS718+dLS0pK+1IsXL+QPu7S0lL7S/v37a2trq6qqHj582NzcvE+fPuvWraupqSFJUuLiMtYuEid9KUdHR1VV1QcPHiQmJk6cONHBweHatWtnz56dNGmS7Gj19PTwBIvFkjhAGydGKioqCCENDQ1cqKKiIhQKJR6IIUOGREZGJiQkDBw40NraOioqCiEksVDiPiksLLSwsKDWjneFjCOOydi9rTslEEKzZ8/Gmc3hw4f9/Pzos6SdmSItyFkNe/XqlaGhociej4yM3LJly82bN8Xr8/n8CRMmQHIDAFAyypzZnDp1ytDQsLq6Gn80NzffuHFjcXFxQUGBmZmZra3t6/eePXsWHx8vsREzMzP8SAIrKiqSZ9UWFhb0pZ4/f25sbIwQIghCnsXNzc3p37u7du1KTk6OioqKiIi4du3aixcv4uLicIMS25S2dtkIgpgwYUJ8fPytW7ecnZ1Hjx6dmJh4/vx5Ly8v8ZrybIU8JB6I/Pz8bt26JSUlVVZWBgcH+/n5vXr1SmKhxH3SpUsXeh6Jn6M1e8Sl7V6JMct5Snh4eJSVlaWmpp49e5b+ppKMM5O+uJzVMKFQeOrUKTc3N5FyV1fXwMDA2bNnv337Vnyp2traCRMmXL58WdomAABAp6PMmY2Hh4eZmdnEiRNPnTqVkZFx+fLluXPn2tnZWVtbT5w4saSkZPv27Y2NjUVFRWPHjt2+fbvERqZOnZqbm7t7926BQHDixInr16/Ls+qpU6fm5OT8+eefjY2NaWlpYWFh+E92FouVnZ3d7GvSHh4er1+//vPPPwUCwa1bt4KDg3k83uvXr9lstp6eHkmSR44cSU1NbWhokNimtLU3y8vLa8eOHX369FFXV3dzczt48KCZmZl4n4ScWyEPiQfi5s2bnp6e2dnZXC5XX1+fw+FwuVyJhRL3yYwZM9LT0w8fPtzQ0HDixImLFy9KWxE9Emm7V5z8pwR+HDZ37txRo0ZpaWlR5TLOTPrizVarqKgoLCx88eLFzZs3vb29S0tLg4KCxMPYuHGjtrZ2YmKixCBra2snTpwIyQ0AQGkoc2bDZrOvXLlibW0dEBDQv3//GTNmaGpqnj9/nsFg6OrqJiYmnjlzxsjIyMHBYdSoURs2bJDYiLGx8dmzZyMiIrS0tCIiIjw8PORZtbGxcUJCwpEjR/T19b28vL755ptvvvkGIeTv7//tt99u3bpV9uLa2toJCQlHjx7V09Pz9fXds2fPwIED58yZ4+DgYG1tbWlpefToUV9f38ePH0tsU9ram+Xu7s7n8/HAFPxej3iHjfxbIQ+JB2LmzJlfffWVi4uLurr6hg0bTp48qa6uLrFQ4j4xMjI6duzYxo0b9fT0/v77b2dnZzU1tWaPuLTdK65Fp4Svr296erpIZinjzGxRNX9//y5dulhbW0+bNo3NZl+/ft3U1FQ8BjU1tejoaA6HIy1ISG4AAMqEkDZWo2MiiE4WMPj4iouLX758OWDAAPzRzc1t6tSpixcvbt+oOiCRp4pcLjcuLg7ntXChAeUGZ7iidMw9qcx9NuDTVFVV5ezsfO/ePaFQeO7cuZSUFHd39/YOqhOAnhsAgHJgtncAACiYnZ3d1q1bp02bVlpa2q1bt+jo6B49erR3UJ0DTm7i4uLaOxAAAGi9jtiPJIMC38oBAMjQue4MALRIx3yG0hl1zD3Z+fpsOuBOBKAzkvh3Ao/HO3PmjPjb4wAA0FnAOBsAwP/DaQ0eRAwAAJ0UZDYAAIQgrQEAKAvIbAAAkNYAAJQHZDYAfOogrQEAKBPIbAD4pEFaAwBQMp3v3SgAgKLweLz4+HgXF5f2DgQAABQG+mwA+ERxOBxIawAAyqcj/saODB3zR4EA6IyuXLkiLa2BCw0oNzjDFaVj7smOGJMMHXMnAqBk4EIDyg3OcEXpmHsSnkYBAAAAQHlAZgMAAAAA5QGZDQAAAACUB2Q2AAAAAFAekNkAAAAAQHlAZgMAAAAA5QGZDQCgHVRXV7969aqjNfXhdPwgO36EAMgJMhsAgAI8efLE19fXzMxMTU3NzMzs66+/LiwslFHfycnp4cOHIoV1dXUEQVy/fp1eWFhYSBDE69evW9QUQkhdXZ34X+rq6nJujoeHR2hoqJyV2xIktmzZMoIgbt26RS+kx89kMk1NTQMDA5uamvBcJpM5ffp0ev1p06YFBwfLH7NI2FSEeXl5BEHU1NRIW0ogEBAEoaqqWlZWRi93dHQkCKK0tBQhVFxcPHv2bENDQxaL1aNHj/Xr1wsEAlzNxcVl7dq1eFpGNTabjbedwWDo6Oh4enpmZGRQ61LI5gNlBZkNAKCtUlJSHBwcWCzWP//8k5OT888//9TU1Dg7O8v4dqyoqJCzcT09vZiYGB6P14qm9u3bV0CTlZUl50pbqi1B8vn8w4cPf/311zt27BCZdeTIkerqatybsmfPngMHDuzcuZOaGxMTc+jQIUWFLf8RwbS0tI4dO0Z9fPr0aWZmJvVx8uTJVVVVcXFxGRkZISEhe/fuXblypXgjsqsdOnSooKDg+fPn58+fZ7PZzs7O+fn51Ny2bz5QWmSn0ukCBqAzaumFZmdnt2TJEnpJQ0PDokWLMjMzSZJ89OiRm5ubtrZ29+7d9+7dS5Lk5MmTVVRU9PX19+3bR1+Kz+cjhJKTk+mFBQUFCKGqqiqhUPjDDz+YmJjo6+u7uLjcv39fRlMkSfJ4vNjYWPFoc3NztbS0tmzZMmjQIFNTUz8/v4aGBpIkz507Z2dnx+Vyvb29hw8fHhISkpuby+Vyg4ODnZ2de/fuvXr1aqFQSJLkjRs3RowYoampaWNjs2PHDqFQSAUpsXEZQZIkeeDAAUdHx7y8PBaLVVRUJCP+qVOn+vn54WkGg7Fw4UINDY2cnBxq7ooVK0Qat7e3379/P0mSQqHQ0NBw+fLluHzo0KGHDx+mwqZHmJubixDaunWrpaUlj8ej9g+lsbERIbR48eKhQ4dShStXrvT390cIlZSUCIVCBoORlJREzT1z5szixYvx9KhRo9asWYNDklGNxWLFxcVRswQCQb9+/ai5cm6+NPBVoigdc092xJhk6Jg7EQAl06ILDT8jePr0qcS5b968MTY23rBhQ0NDQ1pampmZWXx8PEmSRkZGiYmJIpVlZzYJCQlWVlbl5eUCgeC7774bM2YMriCxKVJmZoMQCgoKEgqFZWVlpqam0dHRBQUFHA4nKiqqsbExMjISIYQzG4RQYGAgSZJv377t27fv7t278/PzuVxueHh4Q0PDvXv3TE1N9+7dS89sxBuXESRJkoMHD8YZj6en56pVq6TFf+3aNV1d3Z07d+KPDAYjJSXF29vbycmpsbGRlPLVvmrVqhkzZpAk+eDBAw6HM3DgQJIkKyoqWCxWZWUlFTY9QrwJU6ZMqaioyMjI0NPTi4yMpLeJM5tLly5xudznz5+TJCkUCi0tLS9duoQzG5Ik582b1717961bt965c0ckMaIyG9nVRDIbkiTXrVvXu3fvFm2+NPBVoigdc0/C0ygAQJsUFRUhhLp06YI/bt68Wf29NWvWxMXFqamp/fTTT6qqqn379l20aNGePXtatyJtbe2XL1/u27cvMzMzJCTkwoULzS4yc+ZMdZrAwEBq1pIlSwiC0NfXHzx4cHZ2dmxsrJ2dnY+PD5PJ9PX1HTJkCFVz9erVCCENDY158+ZFR0cfP37c1tZ2yZIlqqqqAwYMCAoKOnDggMh6RRqXEeGDBw+ysrJmzpyJEAoICIiIiKirq6Pmzpo1S1tbW1tbm8PhzJgxIyAgYP78+fTFIyIiCgsL169fL619Ly+vixcvkiR58eJFf3//9PR0nCMOGzZMR0dHRmBhYWG6urq2trbOzs7Pnj0Tr6CpqTlx4sTo6GiE0NWrV83Nza2tram5e/bsCQ0NTUtL8/b21tbW9vb2lrgf5KyGGRgYVFZWyr/5V65ckbGBQIlBZgMAaBMjIyOEEP7rHyG0cOHCBw8ePHjwYPDgwfX19fn5+cXFxdrvbdmyRfbIYhmGDBkSGRmZkJAwcOBAa2vrqKioZhfZtm3bA5pVq1ZRs/T19fEEg8EQCoUlJSXm5ubUXCsrKzzBZrN1dXWpRUpLS1++fGlpaUmv+eLFC5H1ijQuI8Jdu3bV1NRYWFjo6+vPmjWrvLwc5wr0+M+fP9+vXz9nZ+eVK1cyGAz64jo6OpGRkVu2bLl586bE9h0dHVVVVR88eJCYmDhx4kQHB4dr166dPXt20qRJMqJCCOnp6eEJFotFjeoVMXv2bBzt4cOH/fz86LPevXvn5eX1119/5ebmZmZm6urquri40JO2FlXDXr16ZWhoKP/mf/bZZ5DcfJogswEAtEmfPn1sbGx+//13/FFXV9fGxsbGxobNZiOEzMzMbG1tX7/37Nmz+Ph4hBBBEC1dUX5+frdu3ZKSkiorK4ODg/38/PBbyjKaMjY2tqExMDCQVtPMzAw/hcFwRxRCqK6ujnoXOicnp0uXLhYWFvSaz58/NzY2bjZ4iUFWV1dHR0fHxsZSuVdwcDB9HLGhoaGlpeWQIUPOnz9/7949X19f8UZcXV0DAwNnz5799u1bieudMGFCfHz8rVu3nJ2dR48enZiYeP78eS8vL3kilM3Dw6OsrCw1NfXs2bP0N5VOnTplaGhYXV2NP5qbm2/cuLG4uJhKf1tUDRMKhadOnXJzcxMpl7H5fD5/woQJkNx8giCzAQC0CUEQBw4cOHjw4MyZMy9dupSVlYUffFy4cKFnz54TJ04sKSnZvn17Y2NjUVHR2LFjt2/fjhBisVjZ2dkSX54qKysrfK+4uJgqv3nzpqenZ3Z2NpfL1dfX53A4XC5XdlMVFRWF/0ta98PUqVNzc3N3794tEAhOnDhBf/N8xYoVfD7/4cOH4eHh/v7+U6dOzcnJ+fPPPxsbG9PS0sLCwkS6KySSGOTff/9taGjo6elp/t6iRYseP34s/mWspaV19OjRU6dORUREiDe+ceNGbW3txMREiav28vLasWNHnz591NXV3dzcDh48aGZmRnVKyY5QNiaT+cUXX8ydO3fUqFFaWlpUuYeHh5mZ2cSJE0+dOpWRkXH58uW5c+fa2dnRH1fJUw0fvhcvXty8edPb27u0tDQoKKhFm19bWzthwoTLly/Lv1FAGbT3QJ+W6XQBA9AZteJCy8zM/Oqrr7p06aKmpmZkZDRjxozbt2/jWffv33d1ddXR0TEyMlq6dGl9fT1JkmvWrGGxWGvXrqU3gkcQ02lpadFHua5evdrU1JTH4/Xt2/f8+fN4KYlNkSQp8R3sR48e4R6X6upqXG3q1Kl4QGtycnL//v25XO6YMWPGjx9PjSD+/vvvjYyMzMzMwsLC8CI3b94cPny4pqamhYXFli1bRN6Nkti4xCD79eu3evVqkbDHjh07adIkUtII6M2bN/N4vKysLPL9EFpq1pMnTzgcjsQhtLW1tVwu9+effyZJsq6ujsPh/PTTT3gWfd9SEYpswhdffEEf10y+H0F8584dkiTxb/DgUeF4QTyCuKioaM6cOWZmZqqqqgYGBrNnzy4sLMSL00cQy6jGYrHwIWMwGCYmJj4+PtRrUHJuPnXQuVzupUuXRGaJ7yjQCh1zTxIk7fB3fATRyQIGoDOCCw3Ly8uzsrKqrq6W/yf+QMdBf77G5XLj4uJGjx5NzYIzXCE65p6Ep1EAAACUXG1t7cSJE+Gx1CcCMhsAAADKD5KbT0dH7EeSoWN2fAGgZOBCA0pA4tte+LGUm5sbnOEK0THvFR0xJhk65k4EQMm04gVgADoX+CpRiI75pcxs7wAAAB1RB7xbAdAiEhN0Ho935swZ8d/FAcoExtkAAAD4JOC0hnpDCigryGwAAAAoP0hrPh2Q2QAAAFBykNZ8UiCzAQAAoMwgrfnUQGYDAABAaUFa8wmCd6MAAAAoJx6PFx8f7+Li0t6BgI8K+mwAAAAoIQ6HA2nNp6kj/saODB3zR4EAUDJwoQElcOXKFWlpDZzhitIx92RHjEmGjrkTAVAycKEB5QZnuKJ0zD0JT6MAAAAAoDwgswEAAACA8oDMBgAAAADKAzIbAAAAACgPyGwAAAAAoDwgswEAAACA8oDMBgAAPobq6upXr161dxTN6BRBAiAbZDYAgA5KXV2deI/JZJqamgYGBjY1NbW95cLCQoIgXr9+3brF6+rqCIK4fv16i9p0cnJ6+PCheDl9MzF1dXU5I/Hw8AgNDZU/8lYHiS1btowgiFu3btELZR8mJpM5ffp0ev1p06YFBwfLHzMALQWZDQCg4zpy5Eh1dTXuSNizZ8+BAwd27tzZ9mb19PRiYmJ4PF7bm5K/zYqKCmmz9u3bV0CTlZWlwMDo2hIkn88/fPjw119/vWPHDpFZsg9TTEzMoUOH2hw7APKCzAYA0HGx2Wx1dXV1dXVdXV1PT8+xY8fevXsXz3r8+LG7u7uOjk6PHj327duHC2/dujVs2DANDQ1ra2vq21S8ZkVFhbe397t372bNmhUQEICrkSRpaWl54sQJaY3LRrVJkuSKFStMTU0NDAxcXV0fPHiAEJoyZUpZWdnMmTP3798vvqyenp45jampKUIoLy9PW1v7119/dXR0NDMz+/LLLxsbGxFCCQkJffr04fF406dPr6mpwTV5PN6PP/44cuRIOzu7n3/+Gf8s7M2bN52dnbW0tLp37/7777+TJEkFKbFx2UEePXrUxsZm9erVJ0+eLC4ulvMwIYQWLly4dOnSZ8+eybMbAVAAslPpdAED0BnJuNCSkpI+Whg8Hi82Npb6eO3aNV1d3Z07d5Ik+ebNG2Nj4w0bNjQ0NKSlpZmZmcXHx1dUVOjo6Gzbtq2hoSElJYXL5f73338SaxYUFCCEqqqqLly4YGBg0NjYSJLk1atXdXV16+vrJS5CD4zP5yOEkpOT6YVUmwkJCVZWVuXl5QKB4Lvvvhsz8btiEwAAIABJREFUZgyuYGRklJiY2OxmUnJzcxFCQUFBQqGwrKzM1NQ0Ojq6oKCAw+FERUU1NjZGRkYihEJCQnDNwMBAkiTfvn3bt2/f3bt35+fnc7nc8PDwhoaGe/fumZqa7t27lwpSYuMygiRJcvDgwfv27SNJ0tPTc9WqVfIcJpIkGQxGSkqKt7e3k5MT3s9Tp05dsWKFtIP+ccBXiaJ0zD3ZEWOSoWPuRACUjLQLLSkpicPhfLQweDwel8vV0tLS0tJis9mmpqY///yzQCAgSfLvv/+2sLCgam7cuNHLy+vw4cM2NjZU4f3796uqqiTWpL7gm5qaunTp8u+//5IkOX/+/ICAAGmN0wOTndmkpqZyudwtW7akp6c3NTVRFWRkNmw2m0ezbNky8n1mk5ubi6t9/vnn69at+/333wcNGkQtO2TIECqzqaiowIV//PHHyJEjt27d6uDgQNUMCwsbOnSoSGYj0riMIO/fv6+trY17pBISEvT19fl8frOHiXyf2VRWVpqbm69evZqEzEa5dMw9yfyI3UMAgE7sypUrEyZMwF/qH822bdvGjh378uXLZcuWWVparly5ksFgIITy8/OLi4u1tbVxtaamph49epSWlpqbm1PL9u/fX1pNqo6Kioqvr29UVJSbm1tMTExiYmKzizRryJAhkZGR4eHha9asMTY23rRp06xZs5rdTHd3d+qjlpYWNa2vr48nGAyGUCgsKSmhb6OVlRWeYLPZurq61CKlpaUvX760tLSk13zx4oXIekUalxHhrl27ampqLCws8MeKioro6OivvvqKil/iYaLo6OhERkaOGzfOw8ND5p4AQAEgswEANC85OdnT07O2tvYjr9fQ0NDS0tLS0vL8+fOOjo6+vr7Hjh1DCJmZmdna2lJv8bx69aqpqenq1auFhYXUsrt27erTp4/EmvQXrPz9/R0cHE6dOmVmZubg4CCtcfljzs/P79atW1JSUm1tbWRkpJ+f35gxYwwNDQmCkLaIsbGxjY2NPI2bmZn9+++/1MeioiIcc11d3atXrwwNDRFCOTk5Xbp0sbCwuHjxIlXz+fPnxsbGzbYvMcjq6uro6OjY2FicLCKE/vzzzx07dlCZjbTDROfq6hoYGDh79mw5txSAVoMRxACAZiQnJ48fP/7du3ftGIOWltbRo0dPnToVERGBEJo4cWJJScn27dsbGxuLiorGjh27fft2Dw+P169f//nnnwKB4NatW8HBwTweT2JNesvdu3e3t7f//vvv/f39cUmzi2BlZWWF79FH1N68edPT0zM7O5vL5err63M4HC6XixBisVjZ2dl4zK+IioqKwv8lEAgk7oepU6fm5ubu3r1bIBCcOHGC/ub5ihUr+Hz+w4cPw8PD/f39p06dmpOT8+effzY2NqalpYWFhfn5+TW7nyUG+ffffxsaGnp6elJjnBctWvT48eMrV66ILC5ymERs3LhRW1sbd4wB8AG19+Owlul0AQPQGdEvtGvXrom8JPzRwhAfWrt582Yej5eVlUWS5P37911dXXV0dIyMjJYuXVpfX0+S5N27d0eMGKGpqdm9e/ejR4/ipcRrUsNNcIW9e/cymczS0lJqRRIbp4g/ktPS0qK3uXr1alNTUx6P17dv3/Pnz+Ol1qxZw2Kx1q5dK76Z4nfmR48e4aEw1dXVuNrUqVPXrFlDkmRycnL//v25XO6YMWPGjx9PjbP5/vvvjYyMzMzMwsLC8CI3b94cPny4pqamhYXFli1bhEKhyDgb8cYlBtmvXz88RIZu7NixkyZNavYw4XE21KwnT55wOBwYZ6M0OuaeJEiSVHi29OEQRCcLGIDOiLrQJPbWwDXY0eTl5VlZWVVXV8v/E3+fOPgqUZSOuSfhaRQAQLKO8BAKAABaCjIbAIAEkNYAADqpjtiPJEPH7PgCQMnIeIsHAOUAXyUK0TG/lOGtbwCABLjPRuKLPB3wRgZAi0DurtzgaRQAQIIRI0acO3cORqQCADodyGwAAJJBcgMA6IwgswEASAXJDQCg04HMBgAgCyQ3AIDOBTIbAEAzILkBAHQikNkAAJo3YsSIuLg4if8PAAAAdCiQ2QAA5OLi4hIfH8/hcNo7EAAAkKUj/saODB3zR4EAUDIyLrQrV664uLh83HAAUDD4KlGUjrknO2JMMnTMnQiAkoELDSg3OMMVpWPuSXgaBQAAAADlAZkNAAAAAJQHZDYAAAA+LXZ2du0dAviAOuITMhk65iM9AJQMXGgAAHl0zHsF9NkAAAAAQHlAZgMAAAAA5QGZDQAAdA7V1dWvXr3q+G1+NJ0i+E4RpJKBzAYA0OGw2WziPS6X6+zsfPny5Ra1kJeXRxBETU2NjDouLi5r165tUbPLli0jCOLWrVstWkoiJpM5ffp0esm0adOCg4NlLOLk5PTw4UOEUGFhIUEQr1+/RgiFh4dra2traGg8ePCAKpSfxDYVRf426+rqCIK4fv16ixanghehrq5O/C/5/9czDw+P0NBQOSu3JUhM4hlFj5/JZJqamgYGBjY1NeG5rThzPjWQ2QAAOqJDhw4VFBQUFBSkpaUNGTLEy8urpKSkfUPi8/mHDx/++uuvd+zYoZAGY2JiDh06JH/9iooKPKGnpxcTE4P/G6+IiIigoKCcnJyePXtShW1sU1Ha2Gazi1PBi9u3b18BTVZWVutiaFZbgpRxRh05cqS6uhr39+zZs+fAgQM7d+6k5rb0zPnkkJ1KpwsYgM6o3S80FosVFxdHfeTz+QihCxcuZGdnI4T4fD4uHzduXEhIiFAo/OGHH0xMTPT19V1cXO7fv0+SZG5uLkJo69atlpaWPB7Pz8+voaFBZC2jRo1as2YNrqylpbVly5ZBgwaZmppKrEyS5IEDBxwdHfPy8lgsVlFRES7Mzc3lcrnBwcHOzs69e/devXq1UCiUWCjSGoPBWLhwoYaGRk5ODi6ZOnXqihUr8PSNGzdGjBihqalpY2OzY8cOoVA4efJkFRUVfX19/J2NEKqqqnJycmIymbq6uvPnz6cKSZJMTU0dOnSourq6lZXVwYMHcZsxMTGDBg3S0dHR0tLy8fHh8/kS25S49mZ3kY+Pz5IlS/C0UCjs2rXr8ePH6W2Kr52+OD7EycnJ9EJqcYmHmB68yL7l8XixsbHiR1DaVpw7d87Ozo7L5Xp7ew8fPjwkJETaERTfM1SQEhuXEaS0M0pi/FOnTvXz85PnzPnI2v1eIVFHjEmGjrkTAVAy7X6h0TMbPp8fEhLCZrNLSkokZjYJCQlWVlbl5eUCgeC7774bM2YM+T6zmTJlSkVFRUZGhp6eXmRkpMha6JkNQigoKEgoFJaVlZmamkZHR4tHNXjwYPz95OnpuWrVKlyIlw0MDCRJ8u3bt3379t29e7fEQpHWGAxGSkqKt7e3k5NTY2MjSft+ys/P53K54eHhDQ0N9+7dMzU13bt3L0mSRkZGiYmJJO0rnyRJ3FVDL6yoqNDR0dm2bVtDQ0NKSgqXy/3vv/9yc3PV1NQuXbqEYzYxMfnrr78ktilx7c3uogsXLhgYGOANuXr1qq6ubn19Pf1bX+LaKbIzG4mHmB68CBmZjfhWFBQUcDicqKioxsbGyMhIhBDObMSPoMQ9Q99GibtIWpDSzijx+K9du6arq7tz585mz5wPJCkpSdqsdr9XSARPowAAHZG3t7e6urq6ujqHwwkNDT1w4ICxsbHEmtra2i9fvty3b19mZmZISMiFCxeoWWFhYbq6ura2ts7Ozs+ePZO9xiVLlhAEoa+vP3jwYJxC0T148CArK2vmzJkIoYCAgIiIiLq6Omru6tWrEUIaGhrz5s2Ljo6WUSgiIiKisLBw/fr19MLjx4/b2touWbJEVVV1wIABQUFBBw4ckB083b///qunpxcYGKiqqurk5HTjxg1ra2tTU9P09PTRo0e/ffu2vLzc0NBQ2tM9GWuXsYvc3NzYbHZiYiJCKCoqysfHR01NjZor/9olknGIpZk5c6Y6TWBgIDVLZCtiY2Pt7Ox8fHyYTKavr++QIUOomiJHUJ7jIvssopN9Rs2aNUtbW1tbW5vD4cyYMSMgIGD+/Pn0xSWeOR/IZ599duXKlY+wIkVhtncAAAAgwe+//+7q6koQBI/Hk5bTkCSJEBoyZEhkZGR4ePiaNWuMjY03bdo0a9YsXEFPTw9PsFgsgUAge436+vp4gsFgCIVCkbm7du2qqamxsLDAHysqKqKjo7/66iuEEJvN1tXVpRopLS2VVihOR0cnMjJy3LhxHh4eVOHLly8tLS2pj1ZWVi9evJAdPF1paam5uTn1sX///gghkiQPHz68f/9+FRWVfv361dTUkFJ+YE3G2mXsIhUVFV9f36ioKDc3t5iYGJziUFRVVeVcu0QyDrE027Ztc3d3pz5qaWlR0yJbUVJSQt9dVlZWeEL8CMpzXGSfRXQyzigc/9ixY1++fLls2TJLS8uVK1cyGAz64hLPnA+Ez+dPmDDh7NmzLi4uH3pdCgF9NgCAjsjExMTGxqZbt270tEZFRQUh1NjYiD/isZn5+fndunVLSkqqrKwMDg728/P7EK9GR0dHx8bGPngvODiYGvVZV1dHrTEn5//au/OwKI68D+DVwNzcICAgAoICihGUFUWQQ4OK4EliEA3kMp5vsprohmQ9YlYSj+izZhHvYDwSNUHBqMETFTFGI0QBAUXkMkEQBTkH+v2jHvuZDDPDDKDA+P38NV1dXV1V08ePruohv0+fPsoSFQoICPjggw8iIyOfPHlCU+zs7OjQBnX37l3aCQzDqFNbW1vb4uJibjEuLu7ChQt79+6Nj49PTU29f/9+UlIS16uty1S29zZFRUUdPXo0MTHRxsZm6NChsquU7V1Nyr5iFR1iZWXlJKNXr17KctrY2Mi2t6SkhH5o/Q22r2cUVlL1EUUIsbCwsLe3Hz58+MmTJ69fvz5r1qzWhbQ+cp6f2trakJAQTV9R7CqIbACgx+jdu7e+vj59bv/dd99lZGQQQtLS0iZOnJiXlycWi83NzUUikVgs7tz9fvfddxYWFhMnTrR9Zu7cuTdv3uQe0S9durSuri4zM3Pz5s1RUVEqEhVavXq1sbEx95xj2rRp+fn533zzTVNTU0ZGxoYNG2bPnk0IEQgEeXl5ql9lJ4SMGzeuqqrqm2++kUqlV65cWbZsmUQiqaqqEgqFZmZmLMvu378/PT29sbFRYZnK9t4mZ2dnd3f3jz76qHVjle1dTnl5efEzpaWlXLqyr1hFh1RUVBT/nbKHdtOmTSsoKNiyZYtUKj18+LDsm+dy32D7ekZhJds8ojhGRkYHDhxITEyMj49vXbjckfNc1dbWhoaG9ojgBpENAPQYIpEoLi5u69atZmZmx48fp3MU3njjjbfeesvf319fX//zzz//8ccf1f/xEjXFx8fLDX/Y2dmNGTNm48aNdLFXr14ODg4TJkxYunRpZGSkikSF+Hz+vn37RCIRXbSysjpx4sT+/fvNzc3DwsIWLly4cOFCQkhUVNSHH364fv161bU1NjY+ceLEgQMHzMzMZs2atXXrVk9Pz+jo6KFDhzo6Otrb2x84cGDWrFk3b95UWKayvasjOjq6tLS0dWOV7V3O1KlT+zzj5ubGpSv7ilV0yDvvvNPn73JychTW2crK6tixY/Hx8UZGRvHx8bKDO3LfYPt6RmEl2zyiZHl6eq5cuXLx4sWtJ+7IHTnPW08Jbrrj/7JSoXv+8y0ALYMTTX337t1zcHCorq6WDacUJkIPgm9QltyAmlgsTkpKCgwMJN31WoFnNgAAAKCu7v/kBpENAAC8XAYNGtTVVejZunlw0x2fI6nQPR98AWgZNd/BAQDohjdl/J4NACjQDa9WAJ0FfyRrROGfOhKJ5OjRo0FBQS++Pm3CaBQAAABogIY1dBJxN4TIBgAAANTVzcMagsgGAAAA1NT9wxqCyAYAAADU0SPCGoLIBgAAANrUU8IagnejAAAAQDWJRJKcnIz/9Q0AAAA9nkgk6kFhDcEv9QFAazjRQLvhCNfIuXPnlIU13bMnu2OdVOienQigZXCigXbDEd5ZumdPYjQKAAAAtAciGwAAANAeiGwAAABAeyCyAQAAAO2ByAYAAAC0ByIbAAAA0B6IbADg+aqurv7rr7+0rAJd3ig5HaxPd2sOQEcgsgGATlBaWhoZGWlhYSEQCPr3779q1SqpVEpXeXt7Z2ZmdtaO9PT0XnvtNdmU6dOnL1u2TMUmXAWKi4sZhqmqqiKEbN682djY2MDA4MaNG1yi+hSW2T4quq4d9VGfbM25ze/du8cwTE1NjbKtpFIpwzA8Hq+8vFw23cvLi2GYBw8eqG6Rv7//ihUr6GcV2YRCIcMwDMPo6uqamJhMnDgxKyuL21c7jgF4qSCyAYBOMGXKlEePHiUlJWVlZa1du3bbtm2ffPIJXVVRUdG5+zp48ODu3bvVz89VwMzM7ODBgxKJhBASHx+/ZMmS/Pz8AQMGcIkdLLN9VHRdO+qjPtmaa7q5kZHRDz/8wC3m5OTcvn2bW1SzRaqz7d69u6io6O7duydPnhQKhb6+voWFhdxaTY8BeLmwPUqPqzBAT6TpidbS0qKrq3v27Fku5ejRo/PmzWNZdsqUKTo6Oubm5tu3b2dZ9tKlS6NGjTI0NHRyctq0aVNLS0teXp6Zmdm7775rYGAQFxf3xx9/BAUFGRsbOzs7b9u2rfW+dHV133//fQMDg/z8fJoybdq0pUuX0s+ty5etQFFRESHk0aNH3t7eenp6pqam7733HpfIsmx6evqIESP09fUdHBx27dpFyzx48OCwYcNMTEyMjIwiIiLq6uoUlqlw7wUFBUZGRrGxscOGDbO2tp49e3ZjY6OaXceybOveUFigXCdz3N3dd+zYQfdiYWGxePFimj5ixIg9e/ZwNZfdvKCggBCyfv16e3t7iUTSusJNTU2EkHnz5o0YMYJL/OSTT6KiogghZWVlqls0evTo5cuXt9lwgUCQlJTErZJKpa+88gq3VvUxoA7cSjpL9+zJ7lgnFbpnJwJomXacaO+++66zs/P69euvXr0qdy+0tLRMSUlhWbawsFAsFm/evLmxsfH69evW1tbbtm3Ly8sjhCxatOjBgwcFBQVWVlaff/55Y2NjRkaGjY1NcnKy3I50dXUvX74cHh7u7e3d1NTEytzVFJYvWwHZKIQ+qpFNrKioMDEx+frrrxsbGy9fviwWi69du1ZQUMDn80+fPs2ybEFBQe/evb/99luFZSrcOw0UlixZ0tLSUl5ebm1tvW/fPjW77vHjx617Q1mBXH1kxcTEzJgxg2XZGzduiEQiT09PlmUrKioEAkFlZaVsb3Cb0/KnTp1aUVGRlZVlZmaWkJAgWyaNbE6fPi0Wi+/evcuybEtLi729/enTp2lko/pg4CIb1dnkIhuWZVeuXOnm5tbmMaAm3Eo6S/fsSYxGAUAn2Lp167p16zIyMsLDw42NjcPDw2nIIuvQoUOurq7z58/n8XgeHh5LlizZuXMnXTV//nxLS8tLly7x+fxPP/2Ux+MNHjx47ty5W7duVbi7+Pj44uLiVatWqVm+On7++WczM7MPPviAx+N5e3tfunTJ0dHR2tr61q1bgYGBT548efjwoYWFRVlZmcLNVbeOYRhzc/N//OMfrbtFWdclJSUp6w3VBXLCwsJOnTrFsuypU6eioqJu3br16NGjEydOjBw50sTEREVXbNiwwdTU1NXV1dfX986dO60zGBoahoaG7tu3jxBy/vx5W1tbR0fHNlukZsMV6tWrV2VlpWyKwmNA1rlz51S0EbQYIhsA6ARPnz4NCwv79ttvCwoKbt++bWpq6u/vX19fL5vnzz//tLe35xYdHBzu379PP/fp04cQUlhYWFpaavxMbGxscXGxwt2ZmJgkJCTExsampaWpU746Hjx4YGtryy0OGTLE2NiYx+Pt2bPH1tZ20KBBK1eurKmpYZX8/z8Vezc3N6cfdHV1W1pa5DZU1nUqekN1gRwvLy8ej3fjxo2UlJTQ0NChQ4empqYeO3Zs0qRJqrvCzMyMfhAIBMqmM0dGRtLIZs+ePbNnz1anRWo2XOHu/vrrLwsLC9kUhceArAkTJiC4eTkhsgGAjkpMTLSwsKiurqaLtra2q1evLi0tpeMdDMPQdDs7OzrYQd29e9fKyop+pnlsbGxcXV2rnrlz505ycrKynQYEBHzwwQeRkZFPnjxRXT5XAdVsbW1lA6m4uLgLFy7s3bs3Pj4+NTX1/v37SUlJchWWpaJ1KqjoOo16Q2EbGYYJCQlJTk6+cuWKr69vYGBgSkrKyZMnw8LC1NlctXHjxpWXl6enpx87dkz2TSXVB4Om2aiWlpbExMSgoCC59NbHgKy6urqQkBAENy8hRDYA0FHjxo2zsbEJDQ1NTEzMyso6c+bMO++8M3DgQDpCIRAI8vLyampqpk2blp+f/8033zQ1NWVkZGzYsEHub/3Q0NCysrKNGzc2NTWVlJS8+uqrGzduVLHf1atXGxsbp6Sk0EVl5XMVaLMVVVVV33zzjVQqvXLlyrJlyyQSSVVVlVAoNDMzY1l2//796enpjY2NCstss3Wadp1GvaGsjWFhYZs2bRo0aJC+vn5QUNCuXbtsbGwcHBzU3FwFPT29119//Z133hk9erSRkZE6LVKz4TRDRUVFcXHx/fv309LSwsPDHzx4sGTJktbVkDsG5NTW1oaEhJw5c0b9doE26OJ5PhrqcRUG6InacaKVlJRER0fb2NjweLxevXpFRkYWFxfTVcuXLxcIBCtWrGBZNi0tzcfHx9DQ0M7OLjY2lr4bRQipq6ujmX///feAgAATExNLS8tFixY1NDTI7YjOHuUWs7OzRSIRN3u0dfmyFVA9g5hl2d9++42+3OTs7HzgwAGWZWtqaqZOnWpqampnZxcWFhYVFRUeHq6szNZ7p09xqqurafWmTZvGzZ9Vp+ta94ayAmU7WVZtba1YLP73v//Nsmx9fb1IJPr000/pKtmac5vLlf/666/HxMTIFkhnEF+9epVl2StXrhBC6CxvuiGdQayiRbIziFVkEwgE9A6lq6vbu3fviIgI7jWoNo8BDnebE4vFdA647CoWOkP37EmGVTJm3D0xTA+rMEBPhBMNtIDsEJtYLE5KSgoMDORW4QjvFN2zJzEaBQAAWq62tjY0NBTDUi8JRDYAAKD9ENy8PBDZAADASwHBzUuiO46QqdA9h/QAtEw73gEG6FlwK+kU3fOmrNfVFQCA7qgbXq0ANKIwQJdIJEePHm390zigTTAaBQAALwUa1nBvSIG2QmQDAADaD2HNywORDQAAaDmENS8VRDYAAKDNENa8bBDZAACA1kJY8xLCu1EAAKCdJBJJcnKyv79/V1cEXig8swEAAC0kEokQ1rycuuNv7KjQPX8UCEDL4EQDLXDu3DllYQ2O8M7SPXuyO9ZJhe7ZiQBaBicaaDcc4Z2le/YkRqMAAABAeyCyAQAAAO2h2XMk/J+8bvjYDXoQnEGdDqfki4fDuJtQcfBr5Xek/smu8VvfL/N1RCuPFXjBXuYzqNPhlOwqOIy7XJsHv5Z9Rxqd7BiNAgAAAO2ByAYAAAC0ByIbAAAA0B6IbAAAAEB7ILIBAAAA7YHIBgAAALQHIhsAAADQHohsAAAAQHsgsgEAAADtgcgGAAAAtAciGwAAANAeiGwAAABAeyCyAQAAAO2ByAYAAAC0ByIbAAAA0B7PPbLZvHkz04pYLLazs3vjjTeysrKedwUAtMb48eMZhgkJCZFLj4qKYhjm2LFjculeXl4Mw/j5+cmlJyQkMAzzySefcCk///zz5MmTrays+Hy+lZVVSEjIwYMHO14xQsi6devkTn8ej2dmZubv779v3z4uW35+PsMwo0aNUn+n0IPIHQY6OjoSicTJyemdd97RgruA+q1btmyZ3OlgaGg4ePDg1atXNzQ0dFX9ZbV5KYiNjWUYZuTIkS0tLXLbSqVShmGGDRumUYHPBasJTfOzLPvf//6XEDJkyJCZMiZMmNC7d29CiIGBwe3btzUts6u0o/kAsjpyCJWVlenq6orFYl1d3aKiItlVu3fvJoTExMTIJlZUVOjo6Ojo6PB4vOrqatlV7777LiHk1KlTdPHjjz8mhDAM079//1GjRvXv319HR4cQMnPmzJaWlo5UjGXZtWvXEkL69es3+plRo0a5urrS68/KlStptry8PEKIj4+PRn2CU7JLtKPb5Q4DX19fDw8PiURCCBEKhUeOHHke9Xxh1G/d0qVLCSEuLi7cueDu7i4QCAghwcHB6pxuHNXfQvtODXUuBWvWrKEn73//+1+5zZuamgghQ4cO1ahANWnUohcU2axZs0Yuva6uLiIighDyxhtvaFpmV8FlFDqoI4fQunXrCCErVqwghKxatUp2VWFhISEkKChINvGHH34ghISHhxNCkpKSZFe5uroKhcK6ujqWZa9du0Yvyjdv3uQy3Lp1y8XFhRCyZ8+ejlSMfXbR//rrr+XSf/nlFz6fz+PxSktLWUQ2PUq7Ixu5w6CpqWnNmjX0KX5ubm7nVfBFU791NLKRO63Ky8s9PDxan6eqdXpko+algItsDAwM5P6SkYtsOn5taXeLumyejVAo/PrrrwkhKSkpXVUHgB4kISHBxMTk448/NjIy2rlzJz3VKTs7O0dHx19//VX2+XBKSoqent5nn31G/n6WVVZW5uTkjBw5UigUEkJOnDhBCFmxYsXAgQO5PG5ublu3biWE7N27tyMVU2Hs2LFTp05tamrCFeClpaent2zZsqVLl9bW1q5evbqrq9PJ1G+dubn5hx9+SAi5dOnSi6qdAhpdCjw8PKqrq+fNm9dZBXaurpxB3KtXLz6fX1NTw6VkZGRERETY2try+XwjIyM/P78jR47QVQsXLmQY5pdffpEtIT09nWGY+fPn08XHjx9/9NHsBoOeAAAX8klEQVRHjo6OAoHA1tZ2/vz55eXlXGY61Hfnzp3XXnvNzMxMLBaPHDmSdj1AN5eZmZmZmTlmzBiRSDR58uR79+6dOnVKNoO/v391dfWtW7e4lJSUlOHDh7u7uzs6OspGD5cuXWJZNigoSHbzR48eye1x5MiRX3755dtvv93Biqng6OhICKmoqFAzP2ilmJgYsVh8+PBhqVT6+eefMwyzfft22QyFhYU6OjqRkZFEvcu4ivsILcHW1jYnJ2fKlClGRkYGBgbBwcG5ubkVFRXvvvuuhYWFkZHRq6++mp2dLVvmX3/9tWDBAjs7Oz6fb2trO2fOnNLSUk1bpyKbnp4eIcTIyEidMp8rNS8FH374obu7e1JSEn023PECO9nzexxEKRuNYln2/PnzhJAhQ4bQxfT0dJFIZGBgMGvWrCVLlkydOlVPT49GM3QtIeStt96SLeH//u//yLMr9aNHj9zc3Aghvr6+H330UXh4uK6uroODw4MHD2jmSZMmSSQSCwuL8ePHb9u27auvvjIzM9PV1f3999+fX/MBZLX7EPrnP/9JCDl06BDLssePHyeEvPbaa7IZ9uzZQwiJj4+ni3RwZ/ny5SzLvvfee4SQ4uJiuoqOfKenp9PFzMxMHR0dfX39r776qqSkpNMrpmw0imXZsLAwQsj333/PYjSqR2lHt6s4DFiWDQgIIIRcvXq1oKCAYZiAgADZtV988QUh5MSJE6wal3HV9xFagr6+vomJyYwZM3bv3r1gwQJCiLOz88CBA8eOHbtt27bPPvuMx+M5OTk1NjbSTQoLC21sbAghfn5+ixYtCgwMJIT07t37zp07GrWOVTIa9fDhw2HDhonF4oKCAvW7VPW30I7vSM1LAR2N2r9//5UrV3R0dCwtLSsrK+kqudGoDl5b5GjUoi6IbFpaWiorKxMTE/v06UMI2b17N00fO3YswzC//fYbl5MGg9HR0XTR2dnZxMSkoaGBLjY3N1tbWzs4ONBFevmWHeancTo3j2fSpEmypbEsm5ycTAiZN2+emm3BZRQ6qH2HkFQqtbKyMjAwoDNjpFKphYUFn88vLy/n8hQXF8se3v/73/8IIRcuXGBZ9vvvvyeE7Nq1i64aOXKkoaGhVCrltt26dSudw0gIGThw4Lx583788ceamppOqZiyi/53333HMIy+vv6jR49YRDY9SqdHNlFRUYSQo0ePsizr5+eno6MjeyN0c3OzsrKiR2ybl/E27yOtS6DPLwMCArg5rYsWLeL+ZmZZduLEieTvE2bj4uIIIYGBgZq2Tm4GsZ+fn6enp1AoNDMz+/nnn9vuRxmdHtmw6l0KuMiGffZwgXvi0HoGcbuvLR1s0QuKbBTS0dFZvHgxdzAlJibu2LFDdtuHDx8SQkJCQuginaKYnJxMF8+dO0eevQ/S0NAgFov79u3b3NwsW8KIESP09PToiyH0gOYOVpZl6VOyV1999fk1H0BW+w4h+ixk9uzZXAodgd2wYYNsNmdnZxcXF/p5ypQp+vr69I/O8vJyhmFmzpzJsmx9fb1AIAgLC5PbRX5+/tKlS7lXlgghBgYGa9askTuh2lGx1u9G+fj4WFtbE0LouAPNhsimB+n0yGbOnDmEkO+++45l2R07dsgeQtevXyeE/POf/6SLbV7G27yP0BLOnz/PZaDPHb/99lsuJT4+nhCyb98+ujnDMF5eXnJ1Hj58OCGEPmVRv3U0smmNz+fPmTOnvr5eRR/KeR6RDavGpUA2sqmurrazsyOEnDlzhlUU2ahToJo0atELmmfj4uISEhISEhLi4+NDX/qKjo7Oy8ujPwNA80yaNOmtt96qrKw8f/78zp07lyxZQn8eo7m5mWag46z0D1BCyIEDB7jE7Ozs2tpagUCwatWqFTLq6+ulUqns5AMHBwfus76+PiGksbHx+XcAQPslJCQQQt544w0uZebMmYQQuekIAQEBt2/ffvToUXNz89mzZ0ePHs3j8Qgh5ubmr7zyCv1L4OrVqw0NDXKTbAgh/fr1i42NzcrKKi0t3bt378yZMxsaGv71r3/Ri34HK0YIuXPnzvlnfv31V5ZlJ02a9MsvvzzfsXboIaqrq8mzC3J4eLhIJOJ+64jOM501a5ZsfhWX8TbvI5S9vT33WSQSEULoGALF5/MJIfQHZjIzM1mWHT16tFydfX19CSEZGRkatY6SHY2qrq5OT08PCAiIj4+nP8fQtTS6FOjr69PHV++99159fX3HC+w0zy9oolqPRt26datPnz56enoJCQmyOQsLC6dPn07jHkKIra0tvWIGBwdzeby9vQ0NDevq6pqamnr16uXp6UnT6VVbmePHj7PPQnXZ5+Q0wBw9evTzaz6ArHYcQk+ePKFXXoXS0tK4nPRmcPz48cuXL5O/PzhZsmQJISQ/Pz82NpYQIvsSJsuyT58+bb3f7OxsOoOBvpXd7oqp/nOWg2c2PUg7ul31YeDl5UUIuXHjBl2kV/7c3Fw65WDQoEFczjYv423eR1qXEBMTQ54N3VK7du0izwZwExMTiaKfM9iwYQMhZO/evRq1TuE8G5Zl6+rqLCws5IbhVFP9LbTv1FDnUiD7zIaiPbxs2bLWz2zad21RSKMWdcG7UW5ubkeOHNHV1Y2Ojk5NTaWJzc3N48aNO3To0Jw5c86ePfvw4cOioiL6WrisyMjIJ0+enDx58syZM+Xl5fQPRPIsHKbP21sbN27ci2wgQCc6ePBgXV2dl5fXnL/z9/cnf386Qicq/vbbb2fOnCGEjBkzhltFH9KkpaVdunTJ0tKSewmzoaFBJBL5+Pi03q+Li8vrr7/e3Nyck5PTwYoBqFBRUZGRkWFgYMAdlm+++SYh5ODBgxcvXiwtLZ09e7aaRal5H9GIgYEBIaT1m1B0FMzMzEz15q1bp5BQKPTw8GhpacnPz+9IbdutI5eCjRs3mpqarlu3TvYJVkcK7Di951Suah4eHitXrly2bNnMmTOzsrIMDAx+++237Ozs4OBgOvORys3NJYSwMj+PMWPGjA8//PDo0aP0x1VnzJhB011dXXk83qVLl6RSKX19jtq0aVNNTc2CBQu6w9t0AO1AR3w2bNgg958H7t+/7+Dg8P3332/cuJFefK2srFxcXK5du9bQ0GBpaenu7s5l9vPz4/P5GRkZ6enpY8eO5dIFAkG/fv0yMjKuX7/u6ekpt+v79+8TQiwsLDpYMQAV1q1b19jYOGvWLO7SPWbMGGtr66SkpKqqKh0dHfqbrupQ8z6ikcGDBzMMQ59BcnMnCCH0z3LZ6SMKtW6dMkVFRUSNUOk56cilwMLCYv369dHR0bKjaR0psOO67PdslixZ4uXlVVxcvGzZMkIInT799OlTLkNNTc2//vUvQgh9wEWZmZkFBwf//PPPSUlJgYGBdB4iIUQsFoeHh9+7d2/58uVc5tTU1MWLFyckJBgaGr6YRgF0rsLCwtTUVHt7+9Z/+tjZ2QUGBj59+pROOKMCAgKuXr16+fJluZk0YrHY29s7OTm5vLxcbtXixYtZlg0NDf3pp5+4n9yor6//4osvjh075unpqfBvTU0rBtBaY2Pjxo0b165dq6+vT39SktLV1Y2IiPj1118PHDgQGBhI37hWh5r3EY2Ym5tPmDAhMzNz8+bNXOLu3bvPnz/v5+dH588qpKx1rUml0lWrVmVlZdGXz9tXz45r36WAioqKGjNmzO+//95ZBXZQ1zyzIYTo6uru2LFj6NChcXFxERER3t7eHh4eFy9eHDdunL+//8OHD3/44YfKykqxWCz3Q16RkZH0NT86Y4CzYcOGy5cv/+c//zl9+rSPj8+ff/558OBBPp+/Y8cO2UAboAeh4/EREREKj+Ho6OhTp05t376d+1MpICCATuiTHYqixowZ8+9//5s8G5mSLSQjI2PTpk1Tp041NjZ2dHRsaWm5fft2XV1d79699+/f3ykVAyCEbN68mU5bYVm2urr69u3btbW1QqFw//79ffv2lc355ptvrlu3rqioSKPfJnZ3d1fzPqJptX///fdFixYlJiYOGTLk1q1bJ0+etLKykhtyVb91X3zxBbetVCq9ffv2w4cPeTye7KOmF699lwLOli1b3N3d6+rqOqvADlF/So6mU3goFb/Ux7Lsp59+SghxdXVtaGgoKSmZPXu2tbW1SCRydnaeNWtWbm5uWFgYwzCy/5yirq7O0NBQKBQ+fvxYrrTy8vIPPvjA3t6ez+fb2NhMnz6dTmunMIMYupymh9CAAQMIIVlZWQrX1tXVGRsbk2evb7As+9dff9FQ4/79+3KZ6Q+3Ozo6Kizq9OnTERER9vb2IpFIIpG4u7t/9tln9JdmOlgxzCDWPu3odnoYyBKJRC4uLnPnzlX2H6NcXV3FYrHcP3Nt8zLe5n1E0xnEVGlp6fvvv29jY8Pn8/v27btgwYKysrJ2tK71W998Pt/Ozi4iIuL69esadanqb6Hdp0abl4LWM4g5X375JWn11rem1xZlNGoRw2oy+sgwmuXXMi9586HjcAh1LvRnl3gB3f748WMrK6vp06fTH9eG1lR/C9p3amjUoq78v1EAAACtffnll/X19RjNhPbpsnk2AAAAcvz8/EpKSu7evRsYGOjn59fV1YEeCc9sAACguzA1NS0rKxs7diz3M8QAmsI8Gw285M2HjsMh1LnQn10C3d4dYJ6NCnhmAwAAANoDkQ0AAABoD0Q2AAAAoD0Q2QAAAID2QGQDAAAA2gORDQAAAGgPRDYAAACgPRDZAAAAgPZAZAMAAADaA5ENAAAAaA9ENgAAAKA9ENkAAACA9tDTdAOGYZ5HPQBeEjiDQAvgMO7+XubvSNv+HSgAAAC8zDAaBQAAANoDkQ0AAABoD0Q2AAAAoD0Q2QAAAID2QGQDAAAA2gORDQAAAGgPRDYAAACgPRDZAAAAgPZAZAMAAADaA5ENAAAAaA9ENgAAAKA9ENkAAIB2evjwIcMw+fn5XV2R52XdunXe3t6EkKqqKoZhcnJyurpG3QIiGwAAgJ5NKBTGxMSYm5t3dUW6Bb2urgAAAAB0iFAoXL16dVfXorvAMxsAAGi/V155ZdOmTfTz5MmThw4dSj8fPnzY2dm5I2vV3wshpLS0dOrUqRKJxM7O7uOPP25oaOC2/emnn+zs7PT19efMmcOlb9myxcHBQSgUDhky5OTJkzRRWSHZ2dmjR48WiUTe3t6xsbF0AKi4uJhhmHv37tE83MCQsnLo0NjOnTsdHR0NDQ3Hjx9fWlpK85eUlEyZMsXAwMDa2nrFihWqK3Pr1i1fX1+RSDRq1KiysjKaKDsadfXq1cDAQH19fbFYPHbs2MLCQponKyvLz89PJBJ5enrGxsa6uLgQQh48eMAwzPr1601NTaOjo5VtTiu/d+9eBwcHsVg8Y8aMmzdv+vj4SCQSPz+/kpISFb0qS2FLi4qKpk+fbmpqam5uvnDhwvr6evX3qBgLAADQXh999NGkSZNYlm1paTE1NdXT03vy5AnLsu+///7ChQs7slb9vbAsO3z48GnTpt28eTMtLW3IkCGLFi1iWba8vJwQYm9vf+7cuUuXLjk5Oc2bN49l2czMTIlEcuLEiYKCgpiYGAMDg5qaGmWF1NXV2dnZRUVF3b9/f8+ePRKJZPjw4SzLFhUVEUIKCgpoDdeuXUvTVVfG29u7qKiotLR0yJAhtDJSqXTQoEHBwcEZGRmnT582NzffunWr6spERkZmZ2dv27aNz+fTnT569IhGYNXV1aamposXL75z5056erq7u3t0dDTLsvX19X379p05c2ZWVtauXbtEItGAAQNYlqWxkbe397lz565cuaJsc1r50aNHl5eX5+bmCoVCKyurq1evVlZWDhs2bMGCBSp6laOwpXV1dY6OjhMnTszMzDx9+rSjoyPtFnX2qAwiGwAAaL9Tp06ZmJg0NzdnZGQ4OTn179//5MmTLMv269fv2LFjHVmr/l7OnTsnEolqa2tp5rS0NB6P19DQQO+Ohw4douk//fSTQCCor68/cuSIoaFhTk4Oy7INDQ2//PJLfX29skJoZu4m/fbbb6uObFRXJikpiaavX7/e09OT5ufxeH/++SdN//777/fv36+skMTERNmIITo6Wi6yefDgwRdffNHY2EgzxMbG/uMf/2BZ9vDhwyYmJk+fPqXpCxYskI1sfvzxR5qubHNa+ePHj9P0YcOG0fiDZdmVK1cGBgayLKuwV2W/RIUt/eGHH/T19auqqmji8ePHdXV1q6qq1NmjMphnAwAA7Tdq1KiGhobMzMwLFy74+vo2NzdfvHjR2dm5pKTE399fV1e33WvV30tCQkJ9fX2vXr1oZpZlm5qaCgoKzMzMCCHcINGwYcMaGhru3r07duxYT09PFxcXDw+P0NDQt99+WyAQZGdnKywkJyfH2dlZIpHQ9OHDh9+8eVNFhygrh1amb9++NF0sFjc2NhJCsrKybG1tLSwsaPprr71GCNmyZYvCQrKysmQr4+XllZWVJbt3S0vL+fPnb9++PSMjIzs7+9dffx04cCAhJDMz083NTSwW02wjRoxISUnhturXr5/qzSlbW1v6QSAQcJ/5fD4dKVPYq7J1U9jSVatWubi4GBkZcRVrbm7Oy8uzt7dvc4/KILIBAID2EwgE/v7+586du3jxYkhISHNz8759+2xtbf38/Oh9tCNr1dyLVCq1s7M7deqU7CZ9+vSprq6m29IUPT09uigSic6cOZOamnrkyJE9e/Zs3rz58uXLygoRi8XNzc1cCo/Hox8YhpHNKZVKuQ8qKsNtTghhWZYQwufz5YpSUYhcNj6fL5dSVlbm5eXVt2/fkJCQsLCwa9euHTlyhLa9paVFbtccrreVbU7RDlTYfEKIwl7t37+/bG1bbyUQCGQTacW4Dle9R2UwgxgAADokODj47NmzFy9e9PX19fX1vXLlSnJy8vjx4zu+Vs29DBgwoLi4WCgUOjk5OTk5VVVVxcTEcDfy3Nxc+uGPP/4Qi8V2dnapqalff/316NGjN2zYkJubK5FIUlJSlBXi5uaWm5tbVVVFC7lx4wb9QKOKx48f08W8vDz6QXVlWnN2di4qKqqoqKCL69evnzFjhrJCBg0alJub++TJE7nKcA4fPtzS0nLhwoVPPvlkwoQJZWVlNFYYOHBgdnZ2XV0dzXbt2jWFlVG2uToU9mqbLXV1dc3Ozua6MT09XVdX18nJSc2dKqZipAoAAKBNOTk5fD7fysqKLlpaWjIMk52d3fG1u3bt2r9/f5s5m5ubX3nlFV9f3xs3bly/fn3w4MGTJ09mn80OGTt2bE1NzcOHD728vD799FOWZS9cuMDj8fbs2VNUVHT48GE+n5+WlqaskJaWlqFDh06ePDknJ+fgwYPcDOKWlhZ7e/vp06dnZGRs3brV1NSUpquuDNe0uLi4gQMH0nI8PT2nTJmSk5Nz9uxZS0vL7du3KyukoaGhf//+4eHht2/fPnDggL6+vtw8m7179wqFwtTU1MrKyp07dwoEArqXpqYme3v72bNn0zxisdjFxYV9Ns8mLy+P1krZ5nKV9/HxWbNmDf28Zs0aHx8fZb0q+yUqbGlTU5Orq+vkyZOzsrJSU1OdnJwiIyPV3KMyiGwAAKCj7O3tw8PD6efp06f37du3U9YGBQVNmzZNnZz37t0LDQ2VSCRmZmZRUVF0Riq9O65du3bAgAGmpqYLFy7k5sZu2bLFycmJz+c7OTnt2LFDRSEsyxYWFgYHBwsEgmHDhs2dO5d7B+rMmTNubm4CgSA4OPh///sfl66iMq0jG5ZlCwoKxo8fLxQKbW1tY2NjVVfmzp07QUFBIpHIw8MjJiZGLrKRSqVz5841MTExMjIKDAyMi4sTCoX0PbKMjIzhw4fz+fyhQ4fOmzdv8ODBbKvIRtnmasYZCntV9ktU2NL8/Pzx48eLRCILC4vFixfX1dW17i6NIhuGVftBEwAAwEtu3bp1hw4dSk9P7+qKaKasrCwrKysoKIguLl++/MqVKydOnOjaWj0nmGcDAACg5RobG8eNG7dz587CwsLjx4/HxcWFh4d3daWeF7wbBQAAoOX69u2bkJDw+eefz5s3r3fv3h9//PFbb73V1ZV6XjAaBQAAANoDo1EAAACgPRDZAAAAgPZAZAMAAADaA5ENAAAAaA9ENgAAAKA9ENkAAACA9kBkAwAAANrj/wFpngt6xpDtcgAAAABJRU5ErkJggg==;strokeColor=#FF0000;" vertex="1" parent="1">
          <mxGeometry x="43.230000000000004" y="140" width="773.54" height="360" as="geometry" />
        </mxCell>
        <mxCell id="kZEs2HqjManc7GenbBka-16" value="&lt;b&gt;&lt;span style=&quot;text-align: center&quot;&gt;1.&amp;nbsp;&lt;/span&gt;what is endpointArn?&lt;/b&gt;&lt;br&gt;Endpoint ARN (Amazon Resource Name) is a connection between your device and PLATFORM APPLICATION SNS, I will explain&amp;nbsp;&lt;span style=&quot;text-align: center&quot;&gt;PLATFORM &lt;br&gt;APPLICATION latter.&lt;/span&gt;&lt;span style=&quot;text-align: center&quot;&gt;&amp;nbsp;Base on that, we can communicate between server and user&#39;s device under notification type, keep contact with user even &lt;br&gt;though&amp;nbsp;the application is not run in the background. (DAU)&lt;br&gt;&lt;/span&gt;" style="text;html=1;align=left;verticalAlign=middle;resizable=0;points=[];autosize=1;strokeColor=none;" vertex="1" parent="1">
          <mxGeometry x="40.00000000000002" y="785" width="770" height="60" as="geometry" />
        </mxCell>
        <mxCell id="kZEs2HqjManc7GenbBka-28" value="&lt;b&gt;&lt;span&gt;2. Where does endpointArn&lt;/span&gt;&lt;span&gt;&amp;nbsp;come from? and how can we get it?&lt;/span&gt;&lt;/b&gt;&lt;br&gt;&lt;span&gt;When you register your deviceID (Android, IOs,...) into PLATFORM APPLICATION, they will response the&amp;nbsp;&lt;/span&gt;&lt;span&gt;endpointArn&lt;/span&gt;&lt;span&gt;&amp;nbsp;value, and we will keep this &lt;br&gt;endpoint ARN to push notification for this device in the future. With DAWS project, they are storing endpointARN in their DynamoDB.&amp;nbsp;&lt;/span&gt;" style="text;html=1;align=left;verticalAlign=middle;resizable=0;points=[];autosize=1;strokeColor=none;" vertex="1" parent="1">
          <mxGeometry x="40" y="860" width="790" height="50" as="geometry" />
        </mxCell>
        <mxCell id="kZEs2HqjManc7GenbBka-29" value="&lt;b&gt;3. What is the PLATFORM APPLICATION?&lt;/b&gt;&lt;br&gt;When you register your application into a platform (Android - GCM, IOs - APNS,..), the SNS will generate the correspond PLATFORM APPLICATION.&lt;br&gt;It looks like the access point for device&#39;s application connect to." style="text;html=1;align=left;verticalAlign=middle;resizable=0;points=[];autosize=1;strokeColor=none;" vertex="1" parent="1">
          <mxGeometry x="40" y="930" width="810" height="50" as="geometry" />
        </mxCell>
        <mxCell id="kZEs2HqjManc7GenbBka-30" value="&lt;div&gt;&lt;b&gt;&lt;font style=&quot;font-size: 18px&quot;&gt;Agenda&lt;/font&gt;&lt;/b&gt;&lt;/div&gt;&lt;div&gt;&lt;b&gt;&lt;font size=&quot;3&quot;&gt;&lt;br&gt;&lt;/font&gt;&lt;/b&gt;&lt;/div&gt;&lt;div style=&quot;text-align: left&quot;&gt;&lt;span&gt;&lt;b&gt;&lt;font size=&quot;3&quot;&gt;I. Explain current flow on DAWS project,&amp;nbsp;&lt;/font&gt;&lt;/b&gt;&lt;/span&gt;&lt;/div&gt;&lt;div style=&quot;text-align: left&quot;&gt;&lt;span&gt;&lt;b&gt;&lt;font size=&quot;3&quot;&gt;and some pre-required flows have done before Raven used the sent notification API.&lt;/font&gt;&lt;/b&gt;&lt;/span&gt;&lt;/div&gt;&lt;div style=&quot;text-align: left&quot;&gt;&lt;span&gt;&lt;b&gt;&lt;font size=&quot;3&quot;&gt;&lt;br&gt;&lt;/font&gt;&lt;/b&gt;&lt;/span&gt;&lt;/div&gt;&lt;div style=&quot;text-align: left&quot;&gt;&lt;span&gt;&lt;b&gt;&lt;font size=&quot;3&quot;&gt;II. The new APIs need integrated from Raven site.&lt;/font&gt;&lt;/b&gt;&lt;/span&gt;&lt;/div&gt;" style="text;html=1;align=center;verticalAlign=middle;resizable=0;points=[];autosize=1;strokeColor=none;" vertex="1" parent="1">
          <mxGeometry x="130" y="-660" width="660" height="90" as="geometry" />
        </mxCell>
        <mxCell id="kZEs2HqjManc7GenbBka-31" value="&lt;b style=&quot;text-align: left&quot;&gt;I. Explain current flow on DAWS project, and some pre-required flows have done before Raven used the sent notification API.&lt;/b&gt;" style="text;html=1;align=center;verticalAlign=middle;resizable=0;points=[];autosize=1;strokeColor=none;" vertex="1" parent="1">
          <mxGeometry x="30" width="730" height="20" as="geometry" />
        </mxCell>
        <mxCell id="kZEs2HqjManc7GenbBka-32" value="&lt;b style=&quot;text-align: left&quot;&gt;&lt;font style=&quot;font-size: 12px&quot;&gt;II. The new APIs need integrated from Raven site.&lt;/font&gt;&lt;/b&gt;" style="text;html=1;align=center;verticalAlign=middle;resizable=0;points=[];autosize=1;strokeColor=none;" vertex="1" parent="1">
          <mxGeometry x="30" y="1170" width="300" height="20" as="geometry" />
        </mxCell>
        <mxCell id="kZEs2HqjManc7GenbBka-34" value="&lt;div style=&quot;text-align: left&quot;&gt;&lt;span&gt;Currently, in Dawn project, The APPLICATION PLATFORMs are created by Rollout team, Device registered into PLATFORM APPLICATION to get&amp;nbsp;&lt;/span&gt;&lt;/div&gt;&lt;div style=&quot;text-align: left&quot;&gt;&lt;span&gt;endpointArn when user sigup application on device.&amp;nbsp;&lt;/span&gt;&lt;/div&gt;&lt;div style=&quot;text-align: left&quot;&gt;&lt;span&gt;&lt;br&gt;&lt;/span&gt;&lt;/div&gt;&lt;div style=&quot;text-align: left&quot;&gt;&lt;span&gt;So, when we develop the CPNM FS3 In-app Notification APIs, We cann&#39;t reuse endpointARN from project team any more, we have to create new&amp;nbsp;&lt;/span&gt;&lt;/div&gt;&lt;div style=&quot;text-align: left&quot;&gt;&lt;span&gt;and mange by channelID.&lt;/span&gt;&lt;span&gt;&amp;nbsp;&lt;/span&gt;&lt;/div&gt;&lt;div style=&quot;text-align: left&quot;&gt;&lt;span&gt;&lt;br&gt;&lt;/span&gt;&lt;/div&gt;&lt;div style=&quot;text-align: left&quot;&gt;&lt;span&gt;Let&#39;s move to the next part for the scope of works and API integration.&lt;/span&gt;&lt;/div&gt;&lt;div style=&quot;text-align: left&quot;&gt;&lt;span&gt;&amp;nbsp;&amp;nbsp;&lt;/span&gt;&lt;/div&gt;" style="text;html=1;align=center;verticalAlign=middle;resizable=0;points=[];autosize=1;strokeColor=none;" vertex="1" parent="1">
          <mxGeometry x="39.99999999999999" y="1020" width="790" height="110" as="geometry" />
        </mxCell>
      </root>
    </mxGraphModel>
  </diagram>
</mxfile>
